<svg width="21" height="18" viewBox="0 0 21 18" fill="none" xmlns="http://www.w3.org/2000/svg">
<path d="M20.7625 10.6953C20.7625 11.9036 20.7625 13.0536 20.7625 14.2453C20.5732 14.2453 20.411 14.2453 20.2487 14.2453C19.014 14.2453 17.7882 14.262 16.5535 14.237C15.8955 14.2286 15.3638 14.4203 14.9041 14.862C14.2011 15.5453 13.453 16.1953 12.741 16.8703C12.056 17.512 11.2359 17.812 10.2715 17.812C8.17148 17.812 6.06246 17.812 3.96246 17.8036C3.71912 17.8036 3.44873 17.7703 3.22341 17.6703C2.83585 17.4953 2.67362 17.1703 2.75474 16.7703C2.82684 16.3703 3.11525 16.087 3.53886 16.0786C4.89079 16.0453 6.24272 16.0536 7.59465 16.0703C7.70281 16.0703 7.82899 16.1703 7.9101 16.262C8.71225 17.1286 9.6586 17.1786 10.5419 16.3703C11.4161 15.5703 12.2813 14.762 13.1556 13.962C13.3268 13.8036 13.4981 13.6453 13.2728 13.437C13.0474 13.2286 12.8672 13.387 12.6959 13.537C11.7947 14.3703 10.8934 15.212 9.98307 16.037C9.38822 16.5786 8.53199 16.3786 8.3247 15.6536C8.20753 15.2703 8.40581 14.9786 8.68521 14.7286C9.60452 13.8703 10.5328 13.0203 11.4612 12.1703C11.6955 11.9536 11.9208 11.737 12.1642 11.5286C12.8221 10.962 13.5882 10.7036 14.4985 10.712C16.4092 10.737 18.311 10.7203 20.2217 10.7203C20.3929 10.6953 20.5552 10.6953 20.7625 10.6953Z" fill="#e8252a"/>
<path d="M0.179688 5.89445C0.179688 4.79445 0.179688 3.76112 0.179688 2.71945C0.179688 2.61112 0.1887 2.50278 0.197713 2.34445C0.368958 2.34445 0.53119 2.34445 0.693421 2.34445C2.63119 2.34445 4.56896 2.35278 6.50673 2.33612C7.42604 2.32778 8.20115 2.61112 8.85007 3.20278C10.0037 4.26112 11.1484 5.31945 12.284 6.38612C12.7436 6.81112 12.7707 7.35278 12.3831 7.71945C11.9685 8.11112 11.4097 8.08612 10.914 7.63612C10.0308 6.82778 9.15651 6.00278 8.25522 5.20278C8.13806 5.09445 7.8857 4.98612 7.76853 5.03612C7.49814 5.14445 7.53419 5.36112 7.73248 5.54445C8.68784 6.42778 9.62518 7.32778 10.6256 8.16945C11.3827 8.81945 12.3741 8.68612 13.0411 7.95278C13.1582 7.82778 13.3745 7.71945 13.5458 7.71945C14.7445 7.70278 15.9522 7.70278 17.1509 7.71112C17.8089 7.71112 18.2145 8.02778 18.2325 8.53612C18.2505 9.06945 17.8539 9.44445 17.187 9.44445C14.8617 9.45278 12.5363 9.45278 10.211 9.41945C9.48999 9.41112 8.85909 9.09445 8.33634 8.61112C7.57025 7.90278 6.80415 7.21945 6.0651 6.51112C5.60544 6.06945 5.07368 5.87778 4.41574 5.88612C3.02776 5.90278 1.63076 5.89445 0.179688 5.89445Z" fill="#e8252a"/>
<path d="M17.0332 7.03835C14.8881 6.99669 13.3379 5.46335 13.392 3.43002C13.4371 1.63835 15.1765 0.146686 17.1774 0.188352C19.1963 0.221686 20.8637 1.81335 20.8186 3.66335C20.7645 5.57169 19.0791 7.08002 17.0332 7.03835ZM16.8259 1.18002C16.916 1.60502 16.6997 1.75502 16.3482 1.91335C15.6092 2.24669 15.5461 3.15502 16.222 3.59669C16.5105 3.78002 16.88 3.86335 17.1864 4.03835C17.3486 4.13002 17.4388 4.33835 17.5559 4.48835C17.3757 4.60502 17.1954 4.80502 17.0062 4.81335C16.6637 4.82169 16.3122 4.72169 15.9156 4.65502C15.8615 4.85502 15.8074 5.07169 15.7444 5.33002C16.1409 5.41335 16.4834 5.48835 16.8259 5.56335C16.8529 5.72169 16.88 5.86335 16.916 6.03835C17.0783 6.03002 17.2225 6.02169 17.3667 6.01335C17.3847 5.81335 17.4027 5.65502 17.4208 5.49669C18.0336 5.32169 18.4753 5.02169 18.4843 4.39669C18.4933 3.76335 18.0336 3.48002 17.4658 3.28002C17.3126 3.23002 17.1414 3.18002 17.0242 3.08835C16.898 2.98835 16.7177 2.79669 16.7538 2.72169C16.8259 2.58835 17.0242 2.43835 17.1774 2.43002C17.4838 2.41335 17.7903 2.48835 18.1238 2.53002C18.1868 2.33835 18.2499 2.13835 18.3311 1.88002C17.9886 1.80502 17.6911 1.74669 17.3937 1.68002C17.3757 1.51335 17.3486 1.35502 17.3306 1.18835C17.1504 1.18002 17.0242 1.18002 16.8259 1.18002Z" fill="#e8252a"/>
<path d="M8.781 11.0544C8.49259 11.1627 8.33036 11.2377 8.16813 11.2877C7.05954 11.671 5.95096 12.0627 4.84237 12.4294C4.63508 12.496 4.36469 12.4877 4.1574 12.4294C3.21104 12.1294 2.27371 11.796 1.22821 11.4294C1.36341 12.3627 1.03894 13.221 1.43551 14.0877C1.58873 14.421 1.50761 14.846 1.53465 15.271C1.20117 15.271 0.930787 15.271 0.606324 15.271C0.651388 14.796 0.426066 14.321 0.777568 13.871C0.849671 13.7877 0.831646 13.6294 0.831646 13.5127C0.840658 12.9877 0.840658 12.4544 0.831646 11.9294C0.831646 11.571 0.966839 11.1377 0.335938 11.0294C0.804607 10.8627 1.26426 10.696 1.73293 10.5294C2.56212 10.2377 3.3913 9.95437 4.22049 9.67937C4.36469 9.62937 4.55396 9.60437 4.68916 9.64604C6.01405 10.096 7.32993 10.5544 8.781 11.0544Z" fill="#e8252a"/>
<path d="M2.06393 12.1328C2.73989 12.3661 3.36178 12.5578 3.96565 12.7995C4.34419 12.9495 4.66865 12.9411 5.03818 12.7911C5.62402 12.5661 6.23689 12.3661 6.90384 12.1328C6.90384 12.8245 6.92187 13.4661 6.88582 14.1078C6.87681 14.2411 6.6605 14.4161 6.50728 14.4745C5.17337 14.9661 3.82144 14.9578 2.48753 14.4828C2.19912 14.3828 2.0459 14.1828 2.06393 13.8661C2.08195 13.3161 2.06393 12.7661 2.06393 12.1328Z" fill="#e8252a"/>
</svg>
