<svg width="16" height="15" viewBox="0 0 16 15" fill="none" xmlns="http://www.w3.org/2000/svg">
<path d="M16 7.5C16 5.51088 15.1571 3.60322 13.6569 2.1967C12.914 1.50026 12.0321 0.947813 11.0615 0.570903C10.0909 0.193993 9.05057 0 8 0C5.87827 0 3.84344 0.790176 2.34315 2.1967C0.842854 3.60322 0 5.51088 0 7.5C0 8.48491 0.206925 9.46018 0.608963 10.3701C1.011 11.2801 1.60028 12.1069 2.34315 12.8033C3.08601 13.4997 3.96793 14.0522 4.93853 14.4291C5.90914 14.806 6.94942 15 8 15C9.05057 15 10.0909 14.806 11.0615 14.4291C12.0321 14.0522 12.914 13.4997 13.6569 12.8033C15.1571 11.3968 16 9.48912 16 7.5ZM14.4 7.5C14.4 9.0913 13.7257 10.6174 12.5255 11.7426C11.3253 12.8679 9.69739 13.5 8 13.5C6.30261 13.5 4.67475 12.8679 3.47452 11.7426C2.27428 10.6174 1.6 9.0913 1.6 7.5C1.6 5.9087 2.27428 4.38258 3.47452 3.25736C4.67475 2.13214 6.30261 1.5 8 1.5C9.69739 1.5 11.3253 2.13214 12.5255 3.25736C13.7257 4.38258 14.4 5.9087 14.4 7.5ZM9.6 3.75L5.6 7.5L9.6 11.25V3.75Z" fill="#565656"/>
</svg>
