<svg width="30" height="33" viewBox="0 0 30 33" fill="none" xmlns="http://www.w3.org/2000/svg">
<path d="M14.9462 7.53125C12.8629 7.53157 10.7987 8.59477 11.0157 10.7193L11.5476 15.3371C11.6409 16.1496 12.1034 17.449 12.794 17.449H12.8432L13.4089 25.1952C13.4333 25.5438 13.6461 25.8267 13.9407 25.8267H16.0682C16.3628 25.8267 16.5756 25.5438 16.6 25.1952L17.1657 17.449H17.2151C17.9058 17.449 18.368 16.1496 18.4616 15.3371L18.9934 10.7193C19.1328 8.59287 17.0298 7.53062 14.9462 7.53125Z" fill="#AAAAAA"/>
<path d="M15 7.53343C16.6569 7.53343 18 5.84702 18 3.76672C18 1.68642 16.6569 0 15 0C13.3431 0 12 1.68642 12 3.76672C12 5.84702 13.3431 7.53343 15 7.53343Z" fill="#AAAAAA"/>
<path d="M18.2766 22.6016C18.2511 22.9062 18.2241 23.2101 18.1986 23.5147C20.8842 23.9109 22.875 24.8096 23.1 25.9215C23.4351 27.5749 18.2574 28.3188 14.922 28.284C11.5866 28.2489 6.5043 27.5749 6.9486 25.9212C7.2402 24.8359 9.2022 23.955 11.8176 23.5448C11.7915 23.2393 11.7618 22.9337 11.7366 22.6285C8.3748 23.0158 5.574 23.9695 4.455 25.2126H0.6687L0 26.6614H3.9498C4.2567 28.3661 7.6779 29.8378 12.57 30.2094L12.4026 32.2874H17.2446L17.196 30.2098C22.113 29.8378 25.6311 28.3661 26.0502 26.6614H30L29.427 25.2126H25.6407C24.5778 23.9381 21.7263 22.9688 18.2766 22.6016Z" fill="#AAAAAA"/>
</svg>
