<svg width="15" height="18" viewBox="0 0 15 18" fill="none" xmlns="http://www.w3.org/2000/svg">
<path d="M7.5 5.0625V0H2.4375C1.98995 0 1.56072 0.17779 1.24426 0.494257C0.927789 0.810725 0.75 1.23995 0.75 1.6875V16.3125C0.75 16.7601 0.927789 17.1893 1.24426 17.5057C1.56072 17.8222 1.98995 18 2.4375 18H12.5625C13.0101 18 13.4393 17.8222 13.7557 17.5057C14.0722 17.1893 14.25 16.7601 14.25 16.3125V6.75H9.1875C8.73995 6.75 8.31072 6.57221 7.99426 6.25574C7.67779 5.93928 7.5 5.51005 7.5 5.0625ZM3 9.5625C3 9.41332 3.05926 9.27024 3.16475 9.16475C3.27024 9.05926 3.41332 9 3.5625 9C3.71168 9 3.85476 9.05926 3.96025 9.16475C4.06574 9.27024 4.125 9.41332 4.125 9.5625C4.125 9.71168 4.06574 9.85476 3.96025 9.96025C3.85476 10.0657 3.71168 10.125 3.5625 10.125C3.41332 10.125 3.27024 10.0657 3.16475 9.96025C3.05926 9.85476 3 9.71168 3 9.5625ZM3 11.8125C3 11.6633 3.05926 11.5202 3.16475 11.4148C3.27024 11.3093 3.41332 11.25 3.5625 11.25C3.71168 11.25 3.85476 11.3093 3.96025 11.4148C4.06574 11.5202 4.125 11.6633 4.125 11.8125C4.125 11.9617 4.06574 12.1048 3.96025 12.2102C3.85476 12.3157 3.71168 12.375 3.5625 12.375C3.41332 12.375 3.27024 12.3157 3.16475 12.2102C3.05926 12.1048 3 11.9617 3 11.8125ZM3 14.0625C3 13.9133 3.05926 13.7702 3.16475 13.6648C3.27024 13.5593 3.41332 13.5 3.5625 13.5C3.71168 13.5 3.85476 13.5593 3.96025 13.6648C4.06574 13.7702 4.125 13.9133 4.125 14.0625C4.125 14.2117 4.06574 14.3548 3.96025 14.4602C3.85476 14.5657 3.71168 14.625 3.5625 14.625C3.41332 14.625 3.27024 14.5657 3.16475 14.4602C3.05926 14.3548 3 14.2117 3 14.0625ZM5.25 9.5625C5.25 9.41332 5.30926 9.27024 5.41475 9.16475C5.52024 9.05926 5.66332 9 5.8125 9H11.4375C11.5867 9 11.7298 9.05926 11.8352 9.16475C11.9407 9.27024 12 9.41332 12 9.5625C12 9.71168 11.9407 9.85476 11.8352 9.96025C11.7298 10.0657 11.5867 10.125 11.4375 10.125H5.8125C5.66332 10.125 5.52024 10.0657 5.41475 9.96025C5.30926 9.85476 5.25 9.71168 5.25 9.5625ZM5.25 11.8125C5.25 11.6633 5.30926 11.5202 5.41475 11.4148C5.52024 11.3093 5.66332 11.25 5.8125 11.25H11.4375C11.5867 11.25 11.7298 11.3093 11.8352 11.4148C11.9407 11.5202 12 11.6633 12 11.8125C12 11.9617 11.9407 12.1048 11.8352 12.2102C11.7298 12.3157 11.5867 12.375 11.4375 12.375H5.8125C5.66332 12.375 5.52024 12.3157 5.41475 12.2102C5.30926 12.1048 5.25 11.9617 5.25 11.8125ZM5.25 14.0625C5.25 13.9133 5.30926 13.7702 5.41475 13.6648C5.52024 13.5593 5.66332 13.5 5.8125 13.5H11.4375C11.5867 13.5 11.7298 13.5593 11.8352 13.6648C11.9407 13.7702 12 13.9133 12 14.0625C12 14.2117 11.9407 14.3548 11.8352 14.4602C11.7298 14.5657 11.5867 14.625 11.4375 14.625H5.8125C5.66332 14.625 5.52024 14.5657 5.41475 14.4602C5.30926 14.3548 5.25 14.2117 5.25 14.0625ZM8.625 5.0625V0.28125L13.9688 5.625H9.1875C9.03832 5.625 8.89524 5.56574 8.78975 5.46025C8.68426 5.35476 8.625 5.21168 8.625 5.0625Z" fill="#565656"/>
</svg>
