<svg width="25" height="25" viewBox="0 0 25 25" fill="none" xmlns="http://www.w3.org/2000/svg">
<path d="M4.19 20.52C4.18 20.24 4.16 19.96 4.15 19.68C4.14 19.45 4.04 19.3 3.82 19.24C3.42 19.14 3.01 19.04 2.61 18.93C2.4 18.87 2.18 18.81 1.98 18.72C1.27 18.41 0.970005 17.79 1.21 17.03C1.36 16.56 1.58 16.11 1.78 15.66C2.09 14.96 2.08 14.92 1.5 14.43C1.15 14.13 0.790005 13.86 0.470005 13.52C-0.149995 12.86 -0.149995 12.13 0.470005 11.47C0.820005 11.11 1.22 10.81 1.6 10.47C2.04 10.09 2.07 10 1.82 9.46C1.63 9.02 1.41 8.59 1.26 8.14C0.930005 7.2 1.23 6.54 2.15 6.21C2.59 6.05 3.06001 5.96 3.51 5.85C4.1 5.7 4.13 5.66 4.16 5.05C4.19 4.58 4.17 4.12 4.2 3.66C4.27 2.64 4.86 2.14 5.85 2.24C6.05 2.26 6.25 2.3 6.45 2.34C6.79 2.41 7.12 2.49 7.46 2.56C7.72 2.62 7.91 2.53 8.03 2.28C8.16 2.02 8.28 1.76 8.41 1.5C8.57 1.2 8.71001 0.899997 8.89001 0.629997C9.35001 -0.0500026 10.01 -0.190003 10.71 0.219997C11 0.389997 11.26 0.609997 11.53 0.819997C11.69 0.939997 11.85 1.08 12.01 1.21C12.44 1.53 12.54 1.53 12.98 1.2C13.2 1.03 13.41 0.839997 13.63 0.679997C13.86 0.509997 14.1 0.319997 14.36 0.189997C14.98 -0.140003 15.59 -0.0300026 16.01 0.549997C16.28 0.929997 16.49 1.36 16.69 1.78C17.12 2.67 17.14 2.69 18.09 2.46C18.44 2.38 18.8 2.29 19.16 2.25C20.13 2.14 20.72 2.65 20.79 3.65C20.83 4.17 20.82 4.7 20.84 5.23C20.86 5.62 20.92 5.69 21.29 5.8C21.72 5.92 22.15 6.01 22.58 6.13C22.74 6.17 22.89 6.22 23.03 6.3C23.74 6.63 24.03 7.23 23.79 7.99C23.63 8.5 23.39 8.97 23.18 9.46C22.94 10.03 22.95 10.1 23.41 10.5C23.81 10.85 24.25 11.18 24.6 11.58C25.13 12.16 25.11 12.84 24.61 13.45C24.43 13.67 24.21 13.86 23.99 14.05C23.77 14.25 23.53 14.42 23.31 14.62C22.97 14.92 22.95 15.02 23.13 15.45C23.27 15.79 23.45 16.12 23.58 16.46C23.69 16.72 23.79 16.98 23.84 17.26C23.95 17.91 23.72 18.42 23.12 18.68C22.68 18.88 22.2 19 21.73 19.11C20.87 19.31 20.84 19.36 20.82 20.26C20.81 20.73 20.82 21.2 20.75 21.67C20.62 22.45 20.05 22.89 19.27 22.79C18.71 22.72 18.16 22.58 17.6 22.48C17.22 22.41 17.12 22.45 16.93 22.8C16.72 23.21 16.54 23.64 16.32 24.03C15.72 25.13 14.93 25.32 13.93 24.57C13.61 24.34 13.32 24.08 13.01 23.84C12.55 23.49 12.46 23.49 12 23.83C11.77 24 11.56 24.19 11.33 24.37C11.14 24.52 10.95 24.66 10.74 24.78C10.02 25.2 9.34001 25.06 8.89001 24.36C8.61001 23.92 8.39 23.42 8.15 22.95C7.87 22.42 7.84 22.39 7.26 22.5C6.78001 22.59 6.31 22.72 5.83 22.78C4.89 22.9 4.3 22.4 4.21 21.42C4.18 21.13 4.18 20.84 4.17 20.55C4.17 20.52 4.18 20.52 4.19 20.52ZM8.52001 17.23C8.73001 17.08 8.92 16.99 9.05 16.85C11.61 14.23 14.17 11.61 16.73 9C17.08 8.64 17.13 8.3 16.89 8.03C16.63 7.75 16.29 7.81 15.92 8.18C13.37 10.78 10.82 13.39 8.28 16C8.2 16.08 8.1 16.15 8.07 16.24C8.03 16.43 7.98 16.66 8.05 16.82C8.11 16.98 8.33001 17.08 8.52001 17.23ZM11.65 9.59C11.65 8.48 10.76 7.56 9.68001 7.56C8.59001 7.55 7.68 8.48 7.68 9.6C7.68 10.71 8.57 11.63 9.66 11.63C10.75 11.63 11.65 10.71 11.65 9.59ZM15.33 13.37C14.24 13.37 13.36 14.29 13.35 15.4C13.35 16.52 14.26 17.45 15.34 17.44C16.43 17.43 17.32 16.52 17.32 15.41C17.34 14.29 16.43 13.36 15.33 13.37Z" fill="#999999"/>
</svg>
