<svg width="14" height="14" viewBox="0 0 14 14" fill="none" xmlns="http://www.w3.org/2000/svg">
<path d="M7 14C6.05208 14 5.14518 13.8154 4.2793 13.4463C3.41341 13.0771 2.66829 12.5804 2.04395 11.9561C1.4196 11.3317 0.922852 10.5866 0.553711 9.7207C0.18457 8.85482 0 7.94792 0 7C0 6.05208 0.18457 5.14518 0.553711 4.2793C0.922852 3.41341 1.4196 2.66829 2.04395 2.04395C2.66829 1.4196 3.41341 0.922852 4.2793 0.553711C5.14518 0.18457 6.05208 0 7 0C7.94792 0 8.85482 0.18457 9.7207 0.553711C10.5866 0.922852 11.3317 1.4196 11.9561 2.04395C12.5804 2.66829 13.0771 3.41341 13.4463 4.2793C13.8154 5.14518 14 6.05208 14 7C14 7.94792 13.8154 8.85482 13.4463 9.7207C13.0771 10.5866 12.5804 11.3317 11.9561 11.9561C11.3317 12.5804 10.5866 13.0771 9.7207 13.4463C8.85482 13.8154 7.94792 14 7 14ZM10.5 3.9375C10.5 3.81901 10.4567 3.71647 10.3701 3.62988C10.2835 3.54329 10.181 3.5 10.0625 3.5H7.4375C7.31901 3.5 7.21647 3.54329 7.12988 3.62988C7.04329 3.71647 7 3.81901 7 3.9375C7 4.05599 7.04329 4.15853 7.12988 4.24512C7.21647 4.33171 7.31901 4.375 7.4375 4.375H8.94141L7.13672 6.17969C7.04557 6.27083 7 6.38477 7 6.52148C7 6.6582 7.04785 6.77214 7.14355 6.86328C7.23926 6.95443 7.35319 7 7.48535 7C7.61751 7 7.72917 6.95443 7.82031 6.86328L9.625 5.05859V6.5625C9.625 6.68099 9.66829 6.78353 9.75488 6.87012C9.84147 6.95671 9.94401 7 10.0625 7C10.181 7 10.2835 6.95671 10.3701 6.87012C10.4567 6.78353 10.5 6.68099 10.5 6.5625V3.9375ZM10.5 8.75H8.75L7.875 9.625C7.29167 9.47005 6.60124 8.99154 5.80371 8.18945C5.00619 7.38737 4.52995 6.69922 4.375 6.125L5.25 5.25V3.5C5.03125 3.1901 4.79427 2.94857 4.53906 2.77539C4.28385 2.60221 4.09245 2.57943 3.96484 2.70703L3.04883 3.62305C2.54753 4.12435 2.47461 4.91276 2.83008 5.98828C3.18555 7.0638 3.86914 8.10742 4.88086 9.11914C5.89258 10.1309 6.9362 10.8145 8.01172 11.1699C9.08724 11.5254 9.87565 11.4525 10.377 10.9512L11.293 10.0352C11.4206 9.90755 11.4001 9.69792 11.2314 9.40625C11.0628 9.11458 10.819 8.89583 10.5 8.75Z" fill="#34BF49"/>
</svg>
