<svg width="23" height="21" viewBox="0 0 23 21" fill="none" xmlns="http://www.w3.org/2000/svg">
<path d="M22.3061 10.4255C21.7292 10.4255 21.1524 10.4255 20.5755 10.4255C20.2009 10.4255 20.2009 10.4255 20.2009 10.8013C20.2009 13.7266 20.2009 16.6592 20.2009 19.5845C20.2009 20.4245 20.2009 20.4318 19.3543 20.4318C14.1924 20.4318 9.03803 20.4318 3.87614 20.4318C3.67386 20.4318 3.46409 20.4318 3.26181 20.4318C2.82729 20.4318 2.74487 20.3582 2.74487 19.9382C2.74487 18.5455 2.74487 17.1603 2.74487 15.7676C2.74487 14.0729 2.74487 12.3782 2.75237 10.6834C2.75237 10.4771 2.69243 10.4108 2.48266 10.4182C1.87582 10.4329 1.26898 10.4255 0.617188 10.3592C4.23575 7.03605 7.84683 3.72026 11.4804 0.375C15.1064 3.71289 18.725 7.02868 22.3361 10.3518C22.3211 10.3813 22.3136 10.4034 22.3061 10.4255ZM12.4768 7.80974C12.4768 7.58869 12.4768 7.36763 12.4768 7.14658C12.4768 6.955 12.4019 6.85184 12.1996 6.85184C11.7126 6.85184 11.2257 6.85184 10.7387 6.85921C10.5514 6.85921 10.439 6.96974 10.4765 7.13921C10.5888 7.69184 10.3042 7.87605 9.81719 8.075C8.19895 8.73079 7.68201 10.7939 8.76833 12.0687C9.17289 12.5403 9.71979 12.8055 10.3042 12.9897C10.9559 13.1961 11.6152 13.3655 12.2595 13.5939C12.6416 13.7266 12.8963 14.0066 12.9188 14.4413C12.9413 14.8982 12.769 15.2666 12.3569 15.4729C11.7651 15.775 11.1507 15.7897 10.5664 15.4361C10.2217 15.2224 10.0644 14.8834 9.96702 14.5076C9.33771 14.5076 8.72338 14.5076 8.07908 14.5076C8.08657 14.6624 8.08657 14.795 8.10155 14.935C8.25139 15.9961 8.82826 16.7624 9.83966 17.1234C10.3416 17.3003 10.6113 17.4992 10.5064 18.0445C10.469 18.2361 10.6038 18.3171 10.8061 18.3097C11.1208 18.3024 11.4429 18.3097 11.7576 18.3024C12.4543 18.295 12.4918 18.435 12.4693 17.6024C12.4618 17.3961 12.5442 17.3224 12.7315 17.2634C13.5706 17.0055 14.1849 16.475 14.582 15.7161C15.084 14.7655 14.9716 13.6234 14.2973 12.8645C13.9002 12.415 13.3833 12.135 12.8139 11.9508C12.4169 11.8182 11.9973 11.7518 11.6002 11.6045C11.2107 11.4571 10.8136 11.295 10.4765 11.0666C10.1169 10.8234 10.0719 10.3592 10.3191 10.035C10.6788 9.55605 11.2032 9.44553 11.7726 9.50447C12.282 9.55605 12.6341 9.83605 12.8289 10.3003C12.8739 10.4182 12.9038 10.5434 12.9413 10.6908C13.5257 10.6908 14.1025 10.6982 14.6869 10.6834C14.7393 10.6834 14.8442 10.5287 14.8367 10.4624C14.7693 10.1013 14.7244 9.72553 14.5745 9.40132C14.1625 8.52447 13.4507 8.01605 12.4768 7.80974Z" fill="#e8252a"/>
<path d="M15.2362 1.15625C16.2252 1.15625 17.1766 1.15625 18.1506 1.15625C18.1506 2.65204 18.1506 4.14046 18.1506 5.68783C17.8509 5.4152 17.5962 5.17941 17.3415 4.94362C16.6972 4.34678 16.0454 3.74257 15.4011 3.14572C15.3336 3.07941 15.2512 2.98362 15.2437 2.90257C15.2288 2.3352 15.2362 1.76783 15.2362 1.15625Z" fill="#e8252a"/>
<path d="M12.4758 7.80857C13.4498 8.00752 14.169 8.52331 14.5736 9.38541C14.7234 9.70962 14.7684 10.0854 14.8358 10.4465C14.8508 10.5128 14.7459 10.6675 14.6859 10.6675C14.1091 10.6823 13.5322 10.6749 12.9403 10.6749C12.8954 10.5275 12.8729 10.4023 12.828 10.2844C12.6332 9.82015 12.2885 9.54015 11.7716 9.48857C11.2022 9.43699 10.6778 9.54015 10.3182 10.0191C10.071 10.3433 10.1159 10.8075 10.4755 11.0507C10.8127 11.2865 11.2097 11.4486 11.5993 11.5886C11.9889 11.7359 12.4159 11.8023 12.813 11.9349C13.3824 12.1191 13.8918 12.4065 14.2964 12.8486C14.9706 13.6001 15.083 14.7423 14.5811 15.7001C14.1765 16.4591 13.5697 16.997 12.7306 17.2475C12.5433 17.3065 12.4609 17.3728 12.4684 17.5865C12.4908 18.4191 12.4534 18.2791 11.7566 18.2865C11.442 18.2938 11.1198 18.2865 10.8052 18.2938C10.6104 18.3012 10.4755 18.2128 10.5055 18.0286C10.6104 17.4759 10.3407 17.2844 9.83871 17.1075C8.82731 16.7465 8.25044 15.9801 8.1006 14.9191C8.08562 14.7865 8.08562 14.6465 8.07812 14.4917C8.72242 14.4917 9.33676 14.4917 9.96607 14.4917C10.056 14.8675 10.2133 15.2065 10.5654 15.4201C11.1498 15.7812 11.7641 15.7591 12.356 15.457C12.768 15.2507 12.9403 14.8749 12.9179 14.4254C12.9029 13.9907 12.6407 13.7107 12.2586 13.578C11.6143 13.3496 10.955 13.1801 10.3032 12.9738C9.71884 12.7896 9.17194 12.5244 8.76738 12.0528C7.68106 10.778 8.19799 8.71488 9.81624 8.0591C10.3032 7.86015 10.5954 7.67594 10.4755 7.12331C10.4381 6.95383 10.5504 6.84331 10.7377 6.84331C11.2247 6.84331 11.7117 6.84331 12.1986 6.83594C12.4009 6.83594 12.4833 6.9391 12.4758 7.13067C12.4684 7.36646 12.4758 7.58752 12.4758 7.80857Z" fill="white"/>
</svg>
