<svg width="23" height="18" viewBox="0 0 23 18" fill="none" xmlns="http://www.w3.org/2000/svg">
<path d="M4.9286 11.4547C4.93197 11.2393 4.891 11.0255 4.80822 10.8265C4.72544 10.6276 4.6026 10.4476 4.44728 10.2977C4.29682 10.143 4.11613 10.0207 3.91636 9.93821C3.71659 9.85575 3.50197 9.81494 3.28575 9.8183C3.06954 9.81494 2.85492 9.85575 2.65515 9.93821C2.45538 10.0207 2.27469 10.143 2.12423 10.2977C1.97166 10.4496 1.85064 10.63 1.76807 10.8285C1.6855 11.027 1.643 11.2397 1.643 11.4546C1.643 11.6695 1.6855 11.8822 1.76807 12.0807C1.85064 12.2792 1.97166 12.4596 2.12423 12.6115C2.27469 12.7662 2.45538 12.8885 2.65515 12.971C2.85492 13.0535 3.06954 13.0943 3.28575 13.0909C3.50197 13.0943 3.71659 13.0535 3.91636 12.971C4.11613 12.8885 4.29682 12.7662 4.44728 12.6115C4.60258 12.4616 4.72542 12.2817 4.8082 12.0827C4.89098 11.8837 4.93196 11.67 4.9286 11.4547ZM7.39287 5.72737C7.39275 5.29341 7.21963 4.87726 6.91156 4.57041C6.60349 4.26356 6.1857 4.09113 5.75002 4.09101C5.47984 4.09097 5.21382 4.15731 4.97552 4.28414C4.73723 4.41098 4.53402 4.59439 4.38389 4.81814C4.23377 5.04189 4.14137 5.29906 4.11487 5.56688C4.08837 5.8347 4.12859 6.10489 4.23198 6.35352C4.33537 6.60216 4.49872 6.82155 4.70758 6.99228C4.91643 7.163 5.16433 7.27979 5.42932 7.33228C5.69432 7.38478 5.96822 7.37137 6.22676 7.29324C6.48531 7.2151 6.72051 7.07466 6.91155 6.88435C7.06686 6.73449 7.1897 6.55451 7.27249 6.35553C7.35527 6.15655 7.39624 5.94278 7.39287 5.72742V5.72737ZM12.8862 11.8764L14.1825 6.99282C14.232 6.78288 14.1983 6.562 14.0883 6.37622C13.9784 6.19045 13.8007 6.05411 13.5923 5.99563C13.4894 5.96573 13.3815 5.95767 13.2753 5.97199C13.1692 5.98631 13.0673 6.02268 12.9762 6.07874C12.8811 6.13266 12.7979 6.2052 12.7318 6.29199C12.6656 6.37878 12.6177 6.47802 12.5911 6.58373L11.2948 11.4673C10.7902 11.5063 10.3103 11.7007 9.92146 12.0234C9.47177 12.3942 9.16929 12.9124 9.06817 13.4851C8.96705 14.0578 9.0739 14.6477 9.36959 15.1491C9.52771 15.4316 9.74271 15.6785 10.0011 15.8743C10.2595 16.0702 10.5558 16.2107 10.8713 16.2871C11.1847 16.3732 11.5125 16.3949 11.8346 16.351C12.1567 16.307 12.4665 16.1983 12.7452 16.0314C13.2489 15.7385 13.6323 15.2774 13.8273 14.7298C14.0223 14.1822 14.0163 13.5836 13.8105 13.0399C13.6315 12.5657 13.3084 12.1589 12.8862 11.8764ZM21.3572 11.4545C21.3573 11.0758 21.2255 10.7088 20.9844 10.416C20.7433 10.1232 20.4077 9.92273 20.0348 9.84877C19.6619 9.77481 19.2748 9.83192 18.9395 10.0104C18.6042 10.1888 18.3413 10.4776 18.1958 10.8274C18.0502 11.1773 18.031 11.5666 18.1413 11.929C18.2516 12.2914 18.4847 12.6045 18.8008 12.8149C19.1169 13.0253 19.4965 13.12 19.8749 13.0829C20.2532 13.0458 20.607 12.8792 20.8758 12.6114C21.0311 12.4616 21.154 12.2816 21.2367 12.0827C21.3195 11.8837 21.3605 11.67 21.3572 11.4547V11.4545ZM13.1429 3.27273C13.143 2.94908 13.0466 2.6327 12.8661 2.36359C12.6856 2.09448 12.429 1.88474 12.1288 1.7609C11.8286 1.63706 11.4983 1.60467 11.1796 1.66784C10.8609 1.73101 10.5682 1.8869 10.3385 2.11579C10.183 2.26706 10.0592 2.44756 9.97424 2.64683C9.88929 2.8461 9.84488 3.06019 9.8436 3.27668C9.84231 3.49317 9.88418 3.70776 9.96676 3.90802C10.0493 4.10828 10.171 4.29023 10.3247 4.44331C10.4784 4.5964 10.6611 4.71758 10.8621 4.79984C11.0632 4.88209 11.2786 4.92379 11.496 4.92251C11.7133 4.92123 11.9282 4.877 12.1283 4.79238C12.3284 4.70776 12.5096 4.58444 12.6615 4.42956C12.8168 4.27973 12.9396 4.09979 13.0224 3.90084C13.1052 3.7019 13.1462 3.48817 13.1429 3.27283V3.27273ZM18.8929 5.72726C18.8931 5.34856 18.7613 4.98154 18.5202 4.68875C18.2791 4.39595 17.9435 4.19549 17.5706 4.12153C17.1977 4.04757 16.8106 4.10468 16.4753 4.28314C16.14 4.4616 15.8771 4.75035 15.7316 5.1002C15.586 5.45005 15.5668 5.83935 15.6771 6.20175C15.7874 6.56415 16.0205 6.87724 16.3366 7.08766C16.6527 7.29808 17.0323 7.39281 17.4107 7.35571C17.789 7.3186 18.1428 7.15197 18.4116 6.88419C18.5669 6.73434 18.6897 6.55438 18.7725 6.35543C18.8552 6.15648 18.8962 5.94275 18.8928 5.72742L18.8929 5.72726ZM23.0001 11.4545C23.0001 13.679 22.3968 15.7372 21.1903 17.6293C21.1181 17.7466 21.0158 17.8428 20.8941 17.9079C20.7723 17.973 20.6354 18.0048 20.4972 18H2.50278C2.36465 18.0048 2.22771 17.973 2.10595 17.9079C1.98419 17.8428 1.88195 17.7466 1.80968 17.6293C0.804303 16.0646 0.197039 14.2794 0.0404907 12.4283C-0.116058 10.5772 0.182829 8.71594 0.911262 7.00581C1.5188 5.59106 2.33591 4.37226 3.36259 3.34942C4.38927 2.32658 5.61285 1.51267 7.03333 0.907673C8.44565 0.308727 9.96484 0 11.4998 0C13.0348 0 14.554 0.308727 15.9664 0.907673C17.3867 1.51277 18.6103 2.32669 19.6371 3.34942C20.6639 4.37215 21.481 5.59089 22.0885 7.00565C22.6942 8.41109 23.0044 9.92522 23 11.4547L23.0001 11.4545Z" fill="#999999"/>
</svg>
