<svg width="20" height="21" viewBox="0 0 20 21" fill="none" xmlns="http://www.w3.org/2000/svg">
<path d="M3.3663 20.3121C2.96246 20.0853 2.68361 19.7895 2.69323 19.2768C2.69323 18.5078 2.9913 18.2318 3.9913 18.1233C4.07784 17.4825 4.14515 16.8318 4.27015 16.1909C4.6163 14.4853 5.45284 13.0853 6.83746 12.0599C7.22207 11.774 7.6163 11.4881 7.98169 11.1628C8.60669 10.6008 8.60669 9.91065 8.00092 9.33882C7.7413 9.09234 7.46246 8.87544 7.16438 8.67826C5.31823 7.40643 4.35669 5.61206 4.1163 3.38389C4.09707 3.18671 4.05861 2.99938 4.02976 2.77262C3.42399 2.75291 2.84707 2.66417 2.71246 1.92474C2.59707 1.32333 2.77976 0.968398 3.3663 0.59375C7.66438 0.59375 11.9528 0.59375 16.2509 0.59375C16.8278 0.968398 17.0201 1.33319 16.9144 1.92474C16.8086 2.52614 16.3663 2.72333 15.8278 2.78248C15.8086 2.89093 15.7894 2.98952 15.7798 3.08812C15.5778 5.44445 14.6259 7.35713 12.6644 8.68812C12.3567 8.89516 12.0586 9.13178 11.799 9.38812C11.2701 9.91065 11.2701 10.5614 11.8086 11.074C12.174 11.4191 12.5778 11.7149 12.9817 12.0107C14.3086 12.9966 15.1644 14.298 15.5298 15.9346C15.6932 16.6445 15.7701 17.3839 15.8855 18.1036C16.6163 18.2811 16.8759 18.5473 16.924 19.1191C16.9721 19.6811 16.7221 20.0557 16.2509 20.3022C11.9528 20.3121 7.66438 20.3121 3.3663 20.3121ZM4.89515 18.1233C8.28938 18.1233 11.6067 18.1233 14.9625 18.1233C14.8855 16.0135 14.3375 14.1501 12.6163 12.8388C12.2798 12.5825 11.9432 12.336 11.6163 12.0797C10.174 10.9261 10.1836 9.51629 11.6355 8.37262C12.0586 8.03741 12.4913 7.74164 12.8952 7.38671C14.2894 6.19375 14.8086 4.59657 14.924 2.78248C11.5586 2.78248 8.2413 2.78248 4.91438 2.78248C5.04899 4.72474 5.64515 6.40079 7.19323 7.60361C7.62592 7.93882 8.07784 8.25431 8.4913 8.6191C9.55861 9.55572 9.57784 10.8571 8.53938 11.8135C8.13553 12.1881 7.68361 12.5036 7.2413 12.8388C5.52015 14.1402 4.98169 15.9938 4.89515 18.1233Z" fill="#e8252a"/>
<path d="M4.89844 18.1221C4.98498 15.9925 5.53305 14.139 7.25421 12.8277C7.6869 12.4925 8.14844 12.177 8.55228 11.8024C9.59074 10.846 9.57151 9.54463 8.50421 8.60801C8.09074 8.24322 7.63882 7.92773 7.20613 7.59252C5.64844 6.39956 5.0619 4.7235 4.91767 2.78125C8.25421 2.78125 11.5619 2.78125 14.9273 2.78125C14.8215 4.59533 14.3023 6.19252 12.8984 7.38548C12.4946 7.73055 12.0523 8.03618 11.6388 8.37139C10.1869 9.51505 10.1773 10.9249 11.6196 12.0784C11.9465 12.3446 12.2927 12.5813 12.6196 12.8376C14.3407 14.1489 14.8792 16.0122 14.9657 18.1221C11.61 18.1221 8.28305 18.1221 4.89844 18.1221ZM5.44651 17.8165C8.4369 17.8165 11.4177 17.8165 14.4177 17.8165C13.8696 15.8939 11.4273 14.4939 9.15805 14.7996C7.41767 15.0263 5.45613 16.6235 5.44651 17.8165ZM13.6388 5.6897C11.1196 4.81224 8.6869 4.79252 6.1869 5.66012C6.35036 5.89674 6.44651 6.09393 6.59074 6.23195C7.21574 6.81364 7.85036 7.39533 8.50421 7.93759C9.20613 8.50942 9.7542 9.16012 9.8119 10.1362C9.8119 10.1855 9.8792 10.2249 9.95613 10.3334C10.0138 10.1658 10.0619 10.077 10.0715 9.97843C10.1292 9.27843 10.4657 8.73618 10.9657 8.29252C11.2927 8.0066 11.6484 7.75026 11.9946 7.48407C12.6388 7.00097 13.1869 6.44886 13.6388 5.6897Z" fill="white"/>
<path d="M5.44531 17.8144C5.45493 16.6116 7.42608 15.0243 9.15685 14.7975C11.4261 14.5018 13.8684 15.8919 14.4165 17.8144C11.4165 17.8144 8.42608 17.8144 5.44531 17.8144Z" fill="#e8252a"/>
<path d="M13.6376 5.68733C13.1857 6.45634 12.6376 7.00845 11.9934 7.48169C11.6472 7.73803 11.2915 7.99437 10.9645 8.29014C10.4645 8.73381 10.128 9.27606 10.0703 9.97606C10.0607 10.0747 10.0126 10.1732 9.95493 10.331C9.86839 10.2225 9.8107 10.1831 9.8107 10.1338C9.753 9.16761 9.20493 8.51691 8.503 7.93521C7.84916 7.39296 7.22416 6.81127 6.59916 6.23944C6.44531 6.10141 6.35877 5.90423 6.19531 5.66761C8.6857 4.79014 11.1184 4.8 13.6376 5.68733Z" fill="#e8252a"/>
</svg>
