<svg width="29" height="29" viewBox="0 0 29 29" fill="none" xmlns="http://www.w3.org/2000/svg">
<path d="M26.0547 3.01613C25.9719 2.92519 25.8716 2.85197 25.7597 2.8009C25.6479 2.74984 25.5268 2.72198 25.4039 2.71901C25.281 2.71605 25.1587 2.73804 25.0445 2.78366C24.9303 2.82927 24.8266 2.89757 24.7395 2.98441L24.0389 3.68166C23.9539 3.76663 23.9062 3.88184 23.9062 4.00196C23.9062 4.12208 23.9539 4.23729 24.0389 4.32226L24.6812 4.96343C24.7233 5.00573 24.7733 5.0393 24.8284 5.0622C24.8835 5.08511 24.9426 5.0969 25.0023 5.0969C25.062 5.0969 25.1211 5.08511 25.1762 5.0622C25.2313 5.0393 25.2814 5.00573 25.3235 4.96343L26.0066 4.28375C26.3521 3.93881 26.3843 3.37693 26.0547 3.01613Z" fill="#E8252A"/>
<path d="M22.6189 5.09411L12.3942 15.3008C12.3322 15.3625 12.2871 15.4392 12.2633 15.5234L11.7904 16.932C11.7791 16.9702 11.7782 17.0108 11.7881 17.0494C11.7979 17.0881 11.8179 17.1234 11.8461 17.1515C11.8743 17.1797 11.9096 17.1998 11.9482 17.2096C11.9869 17.2194 12.0274 17.2186 12.0657 17.2073L13.4732 16.7343C13.5574 16.7105 13.634 16.6655 13.6958 16.6035L23.9024 6.37759C23.9968 6.28215 24.0498 6.15331 24.0498 6.01905C24.0498 5.8848 23.9968 5.75596 23.9024 5.66052L23.3388 5.09411C23.2433 4.99882 23.1138 4.94531 22.9789 4.94531C22.8439 4.94531 22.7145 4.99882 22.6189 5.09411Z" fill="#E8252A"/>
<path d="M12.8549 20.0066L12.8664 20.0033L12.8777 19.9995L14.7697 19.3662C15.3115 19.1966 15.804 18.8979 16.205 18.496C16.2051 18.4959 16.2051 18.4959 16.2051 18.4959L25.1312 9.55226L25.1313 9.55211C25.1433 9.54017 25.1585 9.53204 25.1751 9.52874C25.1918 9.52541 25.209 9.52711 25.2247 9.5336C25.2404 9.54009 25.2538 9.55108 25.2633 9.5652C25.2727 9.57931 25.2778 9.59591 25.2778 9.6129V24.8955C25.2778 25.8506 24.8984 26.7665 24.2231 27.4418C23.5477 28.1171 22.6318 28.4965 21.6768 28.4965H4.10101C3.14596 28.4965 2.23003 28.1171 1.55471 27.4418C0.879391 26.7665 0.5 25.8506 0.5 24.8955V7.31976C0.5 6.36471 0.879391 5.44878 1.55471 4.77346C2.23003 4.09814 3.14596 3.71875 4.10101 3.71875H19.3837C19.4007 3.71877 19.4172 3.72381 19.4313 3.73324L19.7088 3.31839L19.4313 3.73324C19.4454 3.74268 19.4564 3.7561 19.4629 3.77179C19.4694 3.78748 19.4711 3.80475 19.4678 3.8214C19.4645 3.838 19.4563 3.85325 19.4444 3.86523C19.4443 3.86527 19.4443 3.86531 19.4443 3.86536L10.5005 12.793L10.5003 12.7932C10.0989 13.1944 9.80089 13.6869 9.63171 14.2286L8.99846 16.1203L8.99467 16.1316L8.99142 16.1431C8.84014 16.6788 8.83443 17.2452 8.97489 17.7838C9.11535 18.3224 9.39689 18.8139 9.7905 19.2075C10.1841 19.6011 10.6756 19.8826 11.2142 20.0231C11.7528 20.1636 12.3192 20.1579 12.8549 20.0066Z" fill="#E8252A" stroke="white"/>
</svg>
