<svg width="23" height="16" viewBox="0 0 23 16" fill="none" xmlns="http://www.w3.org/2000/svg">
<path d="M3.02994 0.203125H20.2549C21.8799 0.203125 22.6989 0.970125 22.6989 2.53013V13.4761C22.6989 15.0231 21.8799 15.8031 20.2549 15.8031H3.02994C1.40494 15.8031 0.585938 15.0231 0.585938 13.4761V2.53013C0.585938 0.970125 1.40494 0.203125 3.02994 0.203125ZM11.6359 11.3831L20.3979 4.19413C20.7099 3.93413 20.9569 3.33613 20.5669 2.80313C20.1899 2.27013 19.5009 2.25713 19.0459 2.58213L11.6359 7.6001L4.23894 2.58213C3.78394 2.25713 3.09494 2.27013 2.71794 2.80313C2.32794 3.33613 2.57494 3.93413 2.88694 4.19413L11.6359 11.3831Z" fill="#AAAAAA"/>
</svg>
