<svg width="14" height="14" viewBox="0 0 14 14" fill="none" xmlns="http://www.w3.org/2000/svg">
<path d="M12.5748 2.33222C12.5218 2.32676 12.4683 2.32676 12.4153 2.33222H1.52642C1.45664 2.3333 1.38731 2.34376 1.32031 2.36333L6.93976 7.95944L12.5748 2.33222Z" fill="#e8252a"/>
<path d="M13.1478 2.875L7.48556 8.51389C7.33983 8.65875 7.1427 8.74006 6.93722 8.74006C6.73174 8.74006 6.53462 8.65875 6.38889 8.51389L0.777222 2.91778C0.759971 2.98118 0.750824 3.04652 0.75 3.11222V10.89C0.75 11.0963 0.831944 11.2941 0.977806 11.44C1.12367 11.5858 1.3215 11.6678 1.52778 11.6678H12.4167C12.6229 11.6678 12.8208 11.5858 12.9666 11.44C13.1125 11.2941 13.1944 11.0963 13.1944 10.89V3.11222C13.1913 3.0312 13.1756 2.95116 13.1478 2.875ZM2.06056 10.89H1.52V10.3339L4.34722 7.53L4.89556 8.07833L2.06056 10.89ZM12.4089 10.89H11.8644L9.02944 8.07833L9.57778 7.53L12.405 10.3339L12.4089 10.89Z" fill="#e8252a"/>
</svg>
