<svg width="19" height="19" viewBox="0 0 19 19" fill="none" xmlns="http://www.w3.org/2000/svg">
<path fill-rule="evenodd" clip-rule="evenodd" d="M14.5095 0C14.6581 0 14.8064 0 14.955 0C14.9835 0.010614 15.011 0.0252081 15.0405 0.0315102C15.7563 0.179774 16.274 0.689908 16.3705 1.41663C16.4249 1.82394 16.3947 2.2422 16.4017 2.65515C16.4034 2.75764 16.402 2.85947 16.402 2.97058C16.6276 2.97058 16.8252 2.96097 17.0216 2.97224C17.8212 3.01802 18.4166 3.39382 18.7804 4.10827C18.8819 4.30761 18.928 4.53515 19 4.74975C19 5.91231 19 7.07554 19 8.23843C18.9887 8.26629 18.9725 8.29316 18.9672 8.32235C18.8056 9.20762 18.1542 9.8753 17.2567 9.98244C16.7138 10.0471 16.1589 10.011 15.6093 10.0193C15.482 10.0212 15.354 10.0196 15.2147 10.0196C15.2147 10.1158 15.2147 10.1891 15.2147 10.262C15.2147 12.08 15.215 13.8973 15.214 15.715C15.214 15.8321 15.2157 15.9511 15.1971 16.0666C15.0574 16.9459 14.3835 17.5147 13.4794 17.515C10.0297 17.5164 6.57999 17.5147 3.12996 17.5197C3.02184 17.52 2.89912 17.5592 2.80758 17.6182C2.10311 18.0736 1.40495 18.5383 0.705129 19C0.606291 19 0.506791 19 0.407953 19C0.223545 18.9121 0.0875607 18.7761 0 18.5917C0 14.8808 0 11.1699 0 7.45863C0.00895507 7.43641 0.0212268 7.41452 0.0271969 7.3913C0.259697 6.47518 0.855707 6.01149 1.80395 6.01149C3.87423 6.01115 5.94451 6.01149 8.01479 6.01149C8.08609 6.01149 8.15774 6.01149 8.23833 6.01149C8.23833 5.19421 8.23767 4.4038 8.23833 3.61339C8.23866 3.18154 8.45392 2.96893 8.89039 2.96859C9.53914 2.96826 10.1882 2.96826 10.837 2.96826C11.3285 2.96826 11.4482 3.0545 11.6031 3.5245C11.8034 3.46447 12.0081 3.41504 12.2038 3.34241C12.6479 3.17689 12.9371 2.85947 13.024 2.39345C13.0698 2.14767 13.0502 1.88962 13.0635 1.63754C13.0986 0.970846 13.4074 0.474975 14.0057 0.174135C14.1633 0.0951941 14.341 0.0573818 14.5095 0Z" fill="black"/>
<path fill-rule="evenodd" clip-rule="evenodd" d="M14.0753 10.0083C13.9204 10.0143 13.7376 10.0203 13.5605 10.0203C12.8086 10.0203 12.332 9.9055 11.9161 9.62323L11.2239 9.15423L11.2309 9.67663C11.2252 9.69786 11.2335 9.71279 11.2295 9.72207C11.21 9.72672 10.9334 9.73368 10.8584 9.73368C10.8478 9.73368 10.8372 9.73368 10.8262 9.73335C10.5934 9.72771 10.3413 9.72539 10.0339 9.72539C9.85311 9.72539 9.67235 9.72605 9.49126 9.72705C9.31216 9.72771 9.13339 9.72871 8.95428 9.72871H8.30587C8.25944 9.63584 8.23522 9.52207 8.23489 9.38773C8.2339 8.70114 8.23489 8.01455 8.23489 7.32829C8.23489 7.26328 8.23489 7.19827 8.23489 7.1253C8.23456 7.1253 8.23456 7.1253 8.23456 7.1253L8.23489 6.53125H1.77C0.996545 6.53125 0.515957 7.0102 0.515957 7.78138C0.515625 10.2223 0.515625 18.4474 0.515625 18.4474L1.4171 17.9011C1.44165 17.8865 1.46354 17.8736 1.48377 17.8617C1.52854 17.8351 1.57066 17.8099 1.6161 17.7797C1.7103 17.7174 1.80449 17.6554 1.89902 17.593C2.15938 17.4218 2.42836 17.2447 2.69137 17.0606C2.75041 17.0192 2.80912 16.994 2.92188 16.994C5.22964 16.9963 7.52114 16.9966 9.45842 16.9966L13.4239 16.9963C14.2179 16.9963 14.6918 16.52 14.6918 15.7223V9.9851L14.0753 10.0083Z" fill="white"/>
<path fill-rule="evenodd" clip-rule="evenodd" d="M18.479 5.02888C18.476 4.1393 17.822 3.48986 16.9242 3.48422C16.8187 3.48356 16.7125 3.48322 16.6071 3.48322L16.1082 3.48389C16.0456 3.48389 15.9832 3.48389 15.9209 3.48356C15.9066 3.48356 15.8943 3.48289 15.8844 3.4819C15.8837 3.47195 15.883 3.45967 15.883 3.44541C15.8827 3.23778 15.883 3.02981 15.8834 2.82184C15.884 2.4414 15.8847 2.04802 15.8804 1.65961C15.8738 1.01879 15.3703 0.51662 14.7322 0.515625C14.1083 0.515625 13.6035 1.01183 13.5832 1.64535C13.5799 1.74751 13.5806 1.84569 13.5813 1.94088C13.5816 2.00622 13.5819 2.07157 13.5809 2.13691C13.5683 2.9177 13.0629 3.60495 12.3232 3.84775C12.1252 3.91243 11.9256 3.96981 11.7143 4.03018C11.6161 4.05837 11.5176 4.08656 11.4194 4.11575L11.0413 4.2272L10.9976 4.61892L10.9956 4.63318C10.9916 4.66104 10.985 4.70781 10.985 4.76519L10.9846 5.23751C10.9843 6.11118 10.9836 7.01436 10.9879 7.90394C10.9889 8.10461 11.0659 8.31623 11.1985 8.48406C11.7169 9.13948 12.4261 9.48874 13.2479 9.49405C13.7448 9.49703 14.2874 9.49869 14.9066 9.49869C15.4688 9.49869 16.031 9.49736 16.5928 9.49604L16.9255 9.49538C17.8084 9.49372 18.476 8.82769 18.4787 7.9464C18.4823 6.93907 18.4823 5.95761 18.479 5.02888Z" fill="white"/>
<path d="M11.051 3.49219H8.77344V9.2098H11.051V3.49219Z" fill="white"/>
<path d="M9.52077 14.6406H3.09899C2.96234 14.6406 2.85156 14.7514 2.85156 14.8881C2.85156 15.025 2.96201 15.1358 3.09899 15.1358H9.52077C9.65742 15.1358 9.76819 15.025 9.76819 14.8881C9.76819 14.7514 9.65742 14.6406 9.52077 14.6406Z" fill="#E7282C"/>
<path d="M7.88542 13.5938H3.14586C3.00955 13.5938 2.89844 13.7045 2.89844 13.8412C2.89844 13.9778 3.00922 14.0886 3.14586 14.0886H7.88542C8.02173 14.0886 8.13284 13.9778 8.13284 13.8412C8.13284 13.7045 8.02173 13.5938 7.88542 13.5938Z" fill="#E7282C"/>
<path d="M6.64796 12.4375H3.14586C3.00955 12.4375 2.89844 12.5483 2.89844 12.6849C2.89844 12.8216 3.00922 12.9327 3.14586 12.9327H6.64796C6.78494 12.9327 6.89571 12.8219 6.89571 12.6849C6.89571 12.5483 6.78494 12.4375 6.64796 12.4375Z" fill="#E7282C"/>
<path d="M5.39159 11.3359H3.14586C3.00955 11.3359 2.89844 11.4464 2.89844 11.5834C2.89844 11.7197 3.00922 11.8308 3.14586 11.8308H5.39159C5.52857 11.8308 5.63935 11.72 5.63935 11.5834C5.63935 11.4464 5.52857 11.3359 5.39159 11.3359Z" fill="#E7282C"/>
</svg>
