<svg width="29" height="28" viewBox="0 0 29 28" fill="none" xmlns="http://www.w3.org/2000/svg">
<rect x="0.5" y="0.5" width="28" height="27" rx="13.5" fill="#F9F9F9"/>
<g clip-path="url(#clip0_12285_26265)">
<path d="M6.84766 7.54401C6.94056 7.25888 7.09977 7.04236 7.39872 6.97541C7.46678 6.961 7.53613 6.95422 7.60557 6.95517C11.8632 6.95517 16.1209 6.95517 20.3786 6.95517C20.8494 6.95517 21.1377 7.25682 21.1393 7.74814C21.1393 8.07872 21.1393 8.4093 21.1393 8.73988C21.1393 9.07045 21.04 9.37128 20.8173 9.61426C19.9986 10.5068 19.1781 11.398 18.3557 12.2878C18.2446 12.4085 18.11 12.4171 18.0155 12.3205C17.921 12.2238 17.927 12.0866 18.0385 11.9651C18.7659 11.1742 19.4937 10.3835 20.2221 9.59318C20.2694 9.54194 20.3162 9.48988 20.381 9.41797H7.61947C7.65163 9.4593 7.67465 9.49483 7.70284 9.52541C9.3264 11.2885 10.9511 13.0516 12.5771 14.8147C12.6327 14.8686 12.7052 14.9 12.7812 14.9031C13.2028 14.9114 13.6244 14.9072 14.0465 14.9072H14.1505C14.3546 14.9093 14.453 14.987 14.4506 15.1424C14.4483 15.2977 14.3482 15.3709 14.1429 15.3717C13.8404 15.3717 13.5375 15.3717 13.235 15.3717H12.7819V15.5502C12.7819 16.6452 12.7847 17.7403 12.78 18.8353C12.78 19.1056 12.8788 19.2899 13.1071 19.4271C13.7578 19.8122 14.4018 20.2093 15.0486 20.6014C15.0906 20.6271 15.1335 20.6506 15.2034 20.6911C15.2034 20.4692 15.2034 20.27 15.2034 20.0713C15.201 19.9886 15.2034 19.9058 15.2105 19.8233C15.2141 19.7711 15.2365 19.7222 15.2734 19.6865C15.3102 19.6508 15.3587 19.6311 15.409 19.6312C15.5282 19.6238 15.6302 19.6853 15.6338 19.8072C15.6429 20.1415 15.662 20.4812 15.6175 20.8101C15.5778 21.1143 15.2149 21.2378 14.9374 21.0725C14.4407 20.7742 13.9444 20.4676 13.4482 20.1676C13.2552 20.0506 13.0642 19.9308 12.8693 19.818C12.5044 19.6068 12.3345 19.2837 12.3353 18.8527C12.3353 17.701 12.3353 16.549 12.3377 15.3973C12.3406 15.344 12.3326 15.2906 12.3142 15.2407C12.2958 15.1908 12.2674 15.1456 12.2309 15.1081C10.5594 13.3001 8.88941 11.4899 7.22086 9.67748C7.03267 9.47583 6.9219 9.23409 6.84766 8.96963V7.54401ZM13.9849 8.94112C16.1582 8.94112 18.3315 8.94249 20.5048 8.94525C20.6636 8.94525 20.6986 8.89236 20.695 8.74401C20.6875 8.4345 20.6926 8.12417 20.6926 7.81467C20.6926 7.49442 20.6223 7.42004 20.3194 7.42004H7.65163C7.37371 7.42004 7.29431 7.49979 7.29431 7.78285C7.29431 8.1031 7.29947 8.42335 7.29192 8.74359C7.28835 8.8907 7.3213 8.94566 7.48051 8.94525C9.64852 8.93919 11.8167 8.93781 13.9849 8.94112Z" fill="#E8252A"/>
<path d="M22.0927 16.9652C22.0438 17.2012 22.0077 17.4409 21.9446 17.6727C21.4963 19.3057 19.9595 20.4413 18.3503 20.3355C16.6594 20.2247 15.2782 18.9446 15.0102 17.24C14.932 16.7449 14.9509 16.2383 15.0657 15.751C15.1804 15.2636 15.3887 14.8054 15.678 14.4039C15.9673 14.0025 16.3316 13.666 16.749 13.4149C17.1664 13.1638 17.6283 13.0031 18.107 12.9425C20.0488 12.6987 21.839 14.1652 22.0649 16.1826C22.0715 16.2172 22.0806 16.2511 22.0923 16.2843L22.0927 16.9652ZM18.5214 13.3809C17.9042 13.3819 17.301 13.5735 16.7884 13.9313C16.2758 14.2892 15.8766 14.7973 15.6415 15.3914C15.4065 15.9854 15.346 16.6387 15.4677 17.2685C15.5895 17.8984 15.888 18.4765 16.3255 18.9297C16.7631 19.3828 17.3199 19.6908 17.9257 19.8144C18.5314 19.9381 19.1588 19.872 19.7284 19.6244C20.298 19.3769 20.7842 18.959 21.1256 18.4237C21.4669 17.8884 21.6481 17.2598 21.646 16.6173C21.6412 14.8326 20.2334 13.3739 18.5214 13.3809Z" fill="#E8252A"/>
<path d="M13.9843 8.94099C11.816 8.94099 9.64786 8.94237 7.47985 8.94513C7.32104 8.94513 7.28769 8.89058 7.29127 8.74347C7.29881 8.42323 7.29127 8.10298 7.29365 7.78273C7.29365 7.49967 7.37305 7.41992 7.65097 7.41992H20.3188C20.6217 7.41992 20.692 7.4943 20.692 7.81455C20.692 8.12447 20.6868 8.43438 20.6943 8.74389C20.6979 8.89223 20.6622 8.94554 20.5042 8.94513C18.3309 8.93907 16.1576 8.93769 13.9843 8.94099Z" fill="white"/>
<path d="M18.5224 13.3809C20.2343 13.3739 21.6422 14.8325 21.6469 16.6172C21.6485 17.259 21.4672 17.8868 21.1259 18.4213C20.7846 18.9558 20.2987 19.373 19.7297 19.6201C19.1606 19.8671 18.5339 19.933 17.9288 19.8093C17.3238 19.6857 16.7676 19.378 16.3305 18.9253C15.8935 18.4727 15.5952 17.8952 15.4735 17.2661C15.3517 16.637 15.412 15.9844 15.6466 15.3909C15.8812 14.7974 16.2797 14.2897 16.7916 13.9319C17.3034 13.5741 17.9058 13.3824 18.5224 13.3809ZM18.5343 16.9495C18.6534 17.0788 18.7594 17.1953 18.8678 17.3086C19.1719 17.6272 19.4736 17.9482 19.7865 18.259C19.8187 18.2873 19.8562 18.3083 19.8968 18.3204C19.9373 18.3325 19.9798 18.3355 20.0215 18.3292C20.0587 18.3145 20.0918 18.2905 20.1181 18.2594C20.1443 18.2283 20.1628 18.191 20.172 18.1507C20.1784 18.0734 20.1271 17.9726 20.0712 17.9123C19.7015 17.516 19.3236 17.1272 18.9484 16.7375C18.9154 16.7028 18.8853 16.6648 18.836 16.6082C18.8801 16.5763 18.9224 16.5418 18.9627 16.5049C19.3176 16.1371 19.672 15.7686 20.0259 15.3995C20.2026 15.2156 20.2288 15.097 20.1192 14.9792C20.0096 14.8615 19.881 14.8908 19.7138 15.066L19.272 15.5259L18.5303 16.2962C18.4831 16.2495 18.4434 16.2135 18.4053 16.1722C18.0508 15.8039 17.6966 15.4354 17.3424 15.0668C17.3178 15.0412 17.2944 15.0144 17.2686 14.9904C17.1594 14.8867 17.026 14.8813 16.9371 14.9759C16.8481 15.0706 16.8529 15.2115 16.9569 15.3206C17.3341 15.7164 17.7132 16.1104 18.0944 16.5024C18.1321 16.5412 18.1905 16.5577 18.248 16.5896L17.0216 17.8639C16.8628 18.0292 16.8334 18.1639 16.9347 18.2751C17.0455 18.3958 17.1669 18.371 17.3392 18.1925L18.5343 16.9495Z" fill="white"/>
<path d="M18.5328 16.9494L17.3378 18.1944C17.1655 18.3737 17.044 18.3985 16.9332 18.277C16.832 18.1659 16.8598 18.0328 17.0202 17.8659L18.2466 16.5899C18.189 16.558 18.1307 16.5415 18.0929 16.5027C17.7113 16.1109 17.3321 15.717 16.9555 15.3208C16.8514 15.2118 16.8471 15.07 16.9356 14.9762C17.0242 14.8824 17.1579 14.887 17.2671 14.9907C17.2929 15.0146 17.3164 15.0415 17.341 15.0671C17.6951 15.4354 18.0494 15.8039 18.4038 16.1725C18.4435 16.2138 18.4832 16.2498 18.5289 16.2965L19.2693 15.525L19.7112 15.0651C19.8791 14.8899 20.009 14.8622 20.1166 14.9783C20.2241 15.0944 20.1999 15.2146 20.0233 15.3985C19.6691 15.7671 19.3147 16.1356 18.96 16.5039C18.9197 16.5408 18.8775 16.5753 18.8334 16.6072C18.8826 16.6638 18.9128 16.7018 18.9457 16.7365C19.3209 17.1275 19.7001 17.5151 20.0685 17.9113C20.1245 17.9717 20.1757 18.0725 20.1694 18.1498C20.1602 18.19 20.1417 18.2274 20.1154 18.2585C20.0892 18.2896 20.0561 18.3136 20.0189 18.3283C19.9772 18.3346 19.9346 18.3315 19.8941 18.3194C19.8536 18.3073 19.816 18.2864 19.7839 18.258C19.471 17.9485 19.1693 17.6275 18.8651 17.3076C18.7579 17.1952 18.6527 17.0787 18.5328 16.9494Z" fill="#E8252A"/>
</g>
<rect x="0.5" y="0.5" width="28" height="27" rx="13.5" stroke="#E8252A"/>
<defs>
<clipPath id="clip0_12285_26265">
<rect width="16" height="15" fill="white" transform="translate(6.5 6.5)"/>
</clipPath>
</defs>
</svg>
