<svg width="18" height="19" viewBox="0 0 18 19" fill="none" xmlns="http://www.w3.org/2000/svg">
<path fill-rule="evenodd" clip-rule="evenodd" d="M11.6226 17.2156C12.0834 17.2156 12.5439 17.214 13.0043 17.2124C13.4717 17.2108 13.9391 17.2092 14.4061 17.2092C15.1893 17.2092 15.8291 17.214 16.4201 17.2244H16.4503C16.8783 17.2244 17.2719 17.0677 17.5582 16.7829C17.8494 16.4936 18.0023 16.1047 18 15.6581C17.9888 13.2941 17.9901 10.8907 17.9911 8.56598C17.9914 7.47062 17.9921 6.37494 17.9914 5.27926C17.9914 5.13913 17.9855 4.97403 17.9452 4.8125C17.7852 4.17222 17.2207 3.73628 16.5408 3.72785C16.3316 3.72526 16.1073 3.72396 15.8347 3.72396C15.6514 3.72396 15.4671 3.72428 15.2811 3.72493C15.1466 3.72526 15.0115 3.7259 14.8751 3.7259V3.63184C14.8751 3.39441 14.8754 3.15698 14.8757 2.91955C14.8764 2.36457 14.877 1.79078 14.8738 1.2264C14.8695 0.483618 14.388 0.0032437 13.6472 0.00259499C12.1588 0.000973196 10.6708 0 9.18283 0C7.70598 0 6.22881 0.000648838 4.75196 0.00259499C4.0278 0.00356806 3.5365 0.489457 3.53027 1.2118C3.52535 1.77197 3.52633 2.34122 3.52732 2.89165C3.52764 3.13395 3.5283 3.37592 3.5283 3.61822V3.7259L2.38533 3.72558C2.11147 3.72558 1.83893 3.72558 1.56671 3.72623C0.601497 3.72785 0.00163985 4.3198 0.00098391 5.27115C-0.00032797 8.66037 -0.00032797 12.1595 0.00098391 15.6714C0.00131188 16.6237 0.599201 17.2156 1.56146 17.216C2.23872 17.2163 2.91598 17.2163 3.59324 17.2163" fill="black"/>
<path fill-rule="evenodd" clip-rule="evenodd" d="M8.07031 17.2031C8.10344 17.2031 8.13853 17.2044 8.17526 17.207C8.4196 17.2232 8.68493 17.2307 9.01093 17.2307C9.19427 17.2307 9.37793 17.2284 9.56159 17.2262C9.74394 17.2239 9.9263 17.2216 10.1083 17.2216C10.1529 17.2216 10.1972 17.2216 10.2421 17.2219C10.2671 17.2219 10.2943 17.2271 10.3107 17.232" fill="white"/>
<path fill-rule="evenodd" clip-rule="evenodd" d="M14.4087 1.30754C14.4087 1.19239 14.4054 1.09833 14.3894 1.014C14.3392 0.748671 14.1296 0.540433 13.8617 0.489185C13.7731 0.472318 13.6767 0.46875 13.5501 0.46875H4.86611C4.73919 0.46875 4.64932 0.471669 4.56536 0.486265C4.29118 0.533946 4.07603 0.745752 4.02651 1.01659C4.01076 1.10222 4.00781 1.19531 4.00781 1.32733V13.4194H4.67294H13.7436H14.4087V1.30754Z" fill="white"/>
<path fill-rule="evenodd" clip-rule="evenodd" d="M17.5248 14.8764L17.5238 14.6399C17.5225 14.2776 17.225 13.9844 16.8587 13.9844H1.14169C0.774359 13.9844 0.476562 14.2789 0.476562 14.6422V15.6013C0.476562 15.8076 0.476563 16.191 0.754681 16.4716C1.03805 16.7573 1.42669 16.7573 1.63594 16.7573H16.3641C16.3641 16.7573 16.471 16.758 16.4726 16.758C16.5212 16.758 16.5858 16.757 16.6566 16.7486C17.1463 16.6905 17.5097 16.3074 17.5208 15.8374C17.5277 15.5157 17.5261 15.2049 17.5248 14.8764Z" fill="white"/>
<path fill-rule="evenodd" clip-rule="evenodd" d="M9.10679 14.7969H9.09761C8.79489 14.7969 8.52825 15.0505 8.51612 15.3512C8.50956 15.5017 8.56859 15.6532 8.67682 15.7667C8.78571 15.8806 8.93592 15.9474 9.08908 15.9496H9.09761C9.40557 15.9496 9.66697 15.7018 9.68008 15.3973C9.68632 15.2481 9.62728 15.0966 9.51807 14.9818C9.40853 14.8669 9.25864 14.7995 9.10679 14.7969Z" fill="black"/>
<path fill-rule="evenodd" clip-rule="evenodd" d="M3.35515 4.36784V4.36946C3.16132 4.3714 2.95011 4.37205 2.68938 4.37205L1.89667 4.3714C1.78746 4.3714 1.67857 4.3714 1.56969 4.37173C0.864879 4.37432 0.476562 4.76388 0.476562 5.46903C0.476562 7.41097 0.476562 9.3529 0.476562 11.2948V12.841C0.476562 13.2047 0.774359 13.4988 1.14169 13.4988H3.53193C3.53193 13.4943 3.53193 13.4898 3.53193 13.4852V11.4058C3.53193 9.34674 3.53226 7.22024 3.53488 5.12327H3.56965V4.36719H3.35515V4.36784Z" fill="white"/>
<path fill-rule="evenodd" clip-rule="evenodd" d="M17.5236 5.22674C17.5236 4.61176 17.1231 4.20534 16.5039 4.19139C16.3796 4.1888 16.2451 4.1875 16.0815 4.1875C15.9919 4.1875 15.9024 4.18782 15.8129 4.18815H15.7827C15.685 4.18847 15.5872 4.18912 15.4895 4.18912H14.8906V4.84692V5.05581V13.4927H16.8584C17.2258 13.4927 17.5236 13.1982 17.5236 12.8349V12.9419C17.5242 10.3701 17.5245 7.79826 17.5236 5.22674Z" fill="white"/>
<path fill-rule="evenodd" clip-rule="evenodd" d="M13.7375 17.0234H5.15583L4.60156 18.9972H14.3472L13.7375 17.0234Z" fill="black"/>
<path fill-rule="evenodd" clip-rule="evenodd" d="M13.3945 17.2656H5.53699L5.11719 18.5796H13.8563L13.3945 17.2656Z" fill="white"/>
<path d="M10.8073 2.20442H5.33182C5.17866 2.20442 5.05469 2.08181 5.05469 1.93033C5.05469 1.77886 5.17866 1.65625 5.33182 1.65625H10.807C10.9601 1.65625 11.0841 1.77886 11.0841 1.93033C11.0841 2.08181 10.9604 2.20442 10.8073 2.20442Z" fill="#E7282C"/>
<path d="M8.98494 3.36848H5.39432C5.24116 3.36848 5.11719 3.24587 5.11719 3.0944C5.11719 2.94292 5.24116 2.82031 5.39432 2.82031H8.98494C9.1381 2.82031 9.26207 2.94292 9.26207 3.0944C9.26207 3.24587 9.1381 3.36848 8.98494 3.36848Z" fill="#E7282C"/>
<path d="M7.59894 4.64192H5.39432C5.24116 4.64192 5.11719 4.51931 5.11719 4.36783C5.11719 4.21636 5.24116 4.09375 5.39432 4.09375H7.59894C7.7521 4.09375 7.87607 4.21636 7.87607 4.36783C7.87607 4.51931 7.7521 4.64192 7.59894 4.64192Z" fill="#E7282C"/>
<path d="M10.705 11.7195L9.76867 10.7934C9.66044 10.6864 9.66044 10.5128 9.76867 10.4058C9.8769 10.2988 10.0524 10.2988 10.1606 10.4058L10.7395 10.9783L12.6145 9.43824C12.7322 9.34158 12.907 9.35748 13.0048 9.47392C13.1025 9.59036 13.0864 9.76325 12.9687 9.85991L10.705 11.7195Z" fill="#E7282C"/>
</svg>
