<svg width="21" height="21" viewBox="0 0 21 21" fill="none" xmlns="http://www.w3.org/2000/svg">
<path d="M19.3961 0.111563C19.4857 0.171462 19.5591 0.252485 19.6099 0.347479C19.6607 0.442474 19.6874 0.548518 19.6875 0.65625V10.5C19.6875 10.6311 19.6482 10.7591 19.5747 10.8676C19.5013 10.9762 19.397 11.0602 19.2754 11.109L19.0312 10.5L19.2754 11.109L19.2714 11.1103L19.2636 11.1143L19.2334 11.1261C19.0608 11.1946 18.8871 11.2603 18.7123 11.3229C18.3658 11.4476 17.8841 11.6156 17.3381 11.7823C16.2671 12.1131 14.8719 12.4688 13.7812 12.4688C12.6696 12.4688 11.7495 12.1013 10.9489 11.7797L10.9121 11.7666C10.08 11.4319 9.37125 11.1562 8.53125 11.1562C7.6125 11.1562 6.38138 11.4581 5.33269 11.7823C4.86315 11.9286 4.39789 12.0884 3.9375 12.2614V20.3438C3.9375 20.5178 3.86836 20.6847 3.74529 20.8078C3.62222 20.9309 3.4553 21 3.28125 21C3.1072 21 2.94028 20.9309 2.81721 20.8078C2.69414 20.6847 2.625 20.5178 2.625 20.3438V0.65625C2.625 0.482202 2.69414 0.315282 2.81721 0.192211C2.94028 0.0691404 3.1072 0 3.28125 0C3.4553 0 3.62222 0.0691404 3.74529 0.192211C3.86836 0.315282 3.9375 0.482202 3.9375 0.65625V1.02638C4.23412 0.922688 4.5885 0.80325 4.97437 0.685125C6.04537 0.357 7.44188 0 8.53125 0C9.63375 0 10.5315 0.363562 11.3151 0.681187L11.3715 0.704813C12.1879 1.03425 12.8993 1.3125 13.7812 1.3125C14.7 1.3125 15.9311 1.01062 16.9798 0.686438C17.5774 0.499816 18.168 0.291427 18.7504 0.0616875L18.7753 0.0525L18.7806 0.049875H18.7819" fill="#AAAAAA"/>
</svg>
