<svg width="15" height="21" viewBox="0 0 15 21" fill="none" xmlns="http://www.w3.org/2000/svg">
<path d="M11.58 2H8V0H15V7H13V3.41L9.17 7.24C9.6219 7.92243 9.8994 8.7054 9.9781 9.5201C10.0568 10.3348 9.9343 11.1564 9.6213 11.9127C9.3083 12.669 8.8144 13.3369 8.183 13.8578C7.5516 14.3786 6.802 14.7365 6 14.9V17H8V19H6V21H4V19H2V17H4V14.9C2.87064 14.6695 1.8556 14.0558 1.12669 13.1629C0.39778 12.27 -0.000239892 11.1527 1.08474e-07 10C1.08474e-07 8.6739 0.52678 7.40215 1.46447 6.46447C2.40215 5.52678 3.67392 5 5 5C6 5 6.96 5.3 7.75 5.83L11.58 2ZM5 7C4.2044 7 3.44129 7.31607 2.87868 7.87868C2.31607 8.4413 2 9.2044 2 10C2 10.7956 2.31607 11.5587 2.87868 12.1213C3.44129 12.6839 4.2044 13 5 13C5.7956 13 6.5587 12.6839 7.1213 12.1213C7.6839 11.5587 8 10.7956 8 10C8 9.2044 7.6839 8.4413 7.1213 7.87868C6.5587 7.31607 5.7956 7 5 7Z" fill="#AAAAAA"/>
</svg>
