<svg width="556" height="571" viewBox="0 0 556 571" fill="none" xmlns="http://www.w3.org/2000/svg">
<path d="M225.253 218.582C225.253 205.56 235.813 195 248.835 195H531.817C544.861 195 555.399 205.56 555.399 218.582C555.399 231.626 544.861 242.164 531.817 242.164H248.835C235.813 242.164 225.253 231.626 225.253 218.582ZM225.253 336.491C225.253 323.447 235.813 312.909 248.835 312.909H531.817C544.861 312.909 555.399 323.447 555.399 336.491C555.399 349.535 544.861 360.073 531.817 360.073H248.835C235.813 360.073 225.253 349.535 225.253 336.491ZM531.817 477.982H248.835C235.813 477.982 225.253 467.444 225.253 454.4C225.253 441.356 235.813 430.818 248.835 430.818H531.817C544.861 430.818 555.399 441.356 555.399 454.4C555.399 467.444 544.861 477.982 531.817 477.982Z" fill="#F44336"/>
<mask id="path-2-inside-1_406_37" fill="white">
<rect x="217" y="195" width="338.4" height="376" rx="27"/>
</mask>
<rect x="217" y="195" width="338.4" height="376" rx="27" stroke="#F44336" stroke-width="82" mask="url(#path-2-inside-1_406_37)"/>
<mask id="path-3-inside-2_406_37" fill="white">
<path fill-rule="evenodd" clip-rule="evenodd" d="M484 231V64C484 28.65 447.826 0 403.333 0H80.6667C36.1109 0 0 28.65 0 64V319.1C0 354.45 36.1109 383.1 80.6667 383.1H253V241C253 235.477 257.477 231 263 231H484Z"/>
</mask>
<path d="M484 231V270H523V231H484ZM253 383.1V422.1H292V383.1H253ZM445 64V231H523V64H445ZM403.333 39C417.419 39 428.892 43.571 436.12 49.3023C443.283 54.9823 445 60.4484 445 64H523C523 -0.839439 460.444 -39 403.333 -39V39ZM80.6667 39H403.333V-39H80.6667V39ZM39 64C39 60.4251 40.7233 54.9618 47.8647 49.2959C55.074 43.5761 66.5402 39 80.6667 39V-39C23.4716 -39 -39 -0.822451 -39 64H39ZM39 319.1V64H-39V319.1H39ZM80.6667 344.1C66.5402 344.1 55.074 339.524 47.8647 333.804C40.7233 328.138 39 322.675 39 319.1H-39C-39 383.922 23.4716 422.1 80.6667 422.1V344.1ZM253 344.1H80.6667V422.1H253V344.1ZM292 383.1V241H214V383.1H292ZM292 241C292 257.016 279.016 270 263 270V192C235.938 192 214 213.938 214 241H292ZM263 270H484V192H263V270Z" fill="#F44336" mask="url(#path-3-inside-2_406_37)"/>
</svg>
