<svg width="24" height="24" viewBox="0 0 24 24" fill="none" xmlns="http://www.w3.org/2000/svg">
<path d="M11.3234 0.121426L0.301511 4.87859C0.100504 5.04609 0.0111671 5.2748 0 5.3811V8.76472C0.107204 9.24714 0.424348 9.39008 0.56952 9.40125H22.9483C23.3838 9.30077 23.4843 9.16676 23.5848 8.83173V5.64911C23.558 4.97909 23.1493 4.76692 22.9483 4.74458L12.1944 0.121426C11.8996 -0.066181 11.6249 -0.0125629 11.3234 0.121426Z" fill="#999999"/>
<circle cx="11.8275" cy="5.51497" r="0.804029" fill="white"/>
<rect x="2.3125" y="10.9453" width="3.14911" height="6.36523" fill="#999999"/>
<rect x="10.2188" y="10.9453" width="3.14911" height="6.36523" fill="#999999"/>
<rect x="18.125" y="10.9453" width="3.14911" height="6.36523" fill="#999999"/>
<path d="M0 20.9264V21.8309V23.037C0.214408 23.5194 0.603022 23.5953 0.770527 23.573C7.97328 23.6065 22.4927 23.6534 22.9483 23.573C23.4039 23.4926 23.5178 23.1151 23.5178 22.9365V20.8929L21.5078 18.8828H2.04357L0 20.9264Z" fill="#999999"/>
</svg>
