<svg width="19" height="16" viewBox="0 0 19 16" fill="none" xmlns="http://www.w3.org/2000/svg">
<path fill-rule="evenodd" clip-rule="evenodd" d="M0 15.9997C0 11.471 0 6.94293 0 2.41457C0.865008 2.41457 2.25132 2.41457 3.13904 2.41457C3.13904 1.60882 3.13904 0.815326 3.13904 0.0162019C3.2031 0.009253 3.24513 0.000649485 3.28683 0.000318585C4.16065 -0.00497582 4.50638 0.0545862 5.35715 0.264046C6.85702 0.63333 8.19181 1.30969 9.35984 2.30173C9.43475 2.36526 9.55406 2.41026 9.6527 2.41059C12.7684 2.41622 15.884 2.4149 19 2.4149C19 6.9436 19 11.4716 19 16C18.9264 15.9957 18.8526 15.9881 18.779 15.9881C12.5931 15.9874 6.40722 15.9874 0.221336 15.9881C0.147783 15.9878 0.0738917 15.9954 0 15.9997Z" fill="black"/>
<path d="M18.4251 2.96875H10.0469V15.4291H18.4251V2.96875Z" fill="white"/>
<path fill-rule="evenodd" clip-rule="evenodd" d="M0.570312 15.4291V2.96875H3.17754V12.8034C5.06144 12.8246 6.16202 13.2508 7.87915 14.1657L9.21971 15.4291H0.570312V15.4291Z" fill="white"/>
<path fill-rule="evenodd" clip-rule="evenodd" d="M2.61876 13.3521C2.61876 10.0533 2.61876 6.78108 2.61876 3.50781C2.10559 3.50781 1.61987 3.50781 1.125 3.50781C1.125 7.30324 1.125 11.0897 1.125 14.8815C3.40073 14.8815 5.66764 14.8815 7.97693 14.8815C6.35301 13.7578 4.58401 13.2641 2.61876 13.3521Z" fill="white"/>
<path fill-rule="evenodd" clip-rule="evenodd" d="M9.49794 12.6475C9.49794 9.64624 9.49794 6.56358 9.49354 3.52691C9.4932 3.30851 9.38745 3.07556 9.21763 2.9197C8.22043 2.0041 7.05071 1.33403 5.74167 0.927685C5.18748 0.755948 4.63262 0.645758 4.05335 0.591821V0.591159L4.03267 0.589505C3.94793 0.581894 3.86285 0.575607 3.7771 0.570312L3.77812 0.572629L3.74219 0.570312V1.11266C3.74219 1.34495 3.74219 1.57691 3.74219 1.80887C3.74219 5.3045 3.74219 8.78358 3.74219 12.2769C5.62643 12.4003 7.30085 13.0472 8.8136 14.1412L9.48574 14.6971L9.48778 14.3411L9.48879 14.2659C9.49049 14.2458 9.49184 14.2302 9.49286 14.2173C9.49557 14.1859 9.49794 14.1567 9.49794 14.1207V13.4685C9.49794 13.2114 9.49794 12.9533 9.49794 12.6948V12.6475Z" fill="white"/>
<path d="M17.0269 4.94519H11.2397C11.1119 4.94519 11.0078 4.8436 11.0078 4.71885C11.0078 4.59377 11.1115 4.49219 11.2397 4.49219H17.0273C17.1551 4.49219 17.2591 4.59344 17.2591 4.71885C17.2588 4.8436 17.1547 4.94519 17.0269 4.94519Z" fill="#E7282C"/>
<path d="M17.0269 7.25021H11.2397C11.1119 7.25021 11.0078 7.14862 11.0078 7.02354C11.0078 6.89846 11.1115 6.79688 11.2397 6.79688H17.0273C17.1551 6.79688 17.2591 6.89846 17.2591 7.02354C17.2591 7.14862 17.1547 7.25021 17.0269 7.25021Z" fill="#E7282C"/>
<path d="M17.0269 9.5549H11.2397C11.1119 9.5549 11.0078 9.45331 11.0078 9.32823C11.0078 9.20315 11.1115 9.10156 11.2397 9.10156H17.0273C17.1551 9.10156 17.2591 9.20315 17.2591 9.32823C17.2591 9.45331 17.1547 9.5549 17.0269 9.5549Z" fill="#E7282C"/>
<path d="M17.0269 11.8593H11.2397C11.1119 11.8593 11.0078 11.758 11.0078 11.6326C11.0078 11.5078 11.1115 11.4062 11.2397 11.4062H17.0273C17.1551 11.4062 17.2591 11.5078 17.2591 11.6326C17.2588 11.7577 17.1547 11.8593 17.0269 11.8593Z" fill="#E7282C"/>
<path d="M17.0269 14.1561H11.2397C11.1119 14.1561 11.0078 14.0549 11.0078 13.9295C11.0078 13.8044 11.1115 13.7031 11.2397 13.7031H17.0273C17.1551 13.7031 17.2591 13.8044 17.2591 13.9295C17.2588 14.0545 17.1547 14.1561 17.0269 14.1561Z" fill="#E7282C"/>
</svg>
