<svg width="23" height="22" viewBox="0 0 23 22" fill="none" xmlns="http://www.w3.org/2000/svg">
<path d="M20.1139 11C20.1139 9.51042 19.7287 8.13184 18.9583 6.86426C18.1879 5.59668 17.1408 4.59408 15.8169 3.85645C14.4929 3.11882 13.0531 2.75 11.4973 2.75C10.0463 2.75 8.69994 3.07227 7.45832 3.7168C6.21669 4.36133 5.19945 5.23503 4.40661 6.33789L5.75295 7.62695C5.76791 8.05664 5.63328 8.26432 5.34905 8.25L0.816365 8.20703C0.636853 8.20703 0.461081 8.12467 0.289048 7.95996C0.117016 7.79525 0.0309995 7.63411 0.0309995 7.47656L0.00856047 3.13672C-0.00639888 2.86458 0.203032 2.73568 0.636853 2.75L2.34222 4.36133C3.40433 3.01497 4.73571 1.9515 6.33636 1.1709C7.93702 0.3903 9.65734 0 11.4973 0C13.0531 0 14.5416 0.290039 15.9627 0.870117C17.3838 1.4502 18.6068 2.23079 19.6315 3.21191C20.6562 4.19303 21.4715 5.36393 22.0773 6.72461C22.6832 8.08529 22.9861 9.51042 22.9861 11H20.1139ZM8.62515 15.8125C8.62515 15.9987 8.55409 16.1598 8.41197 16.2959C8.26986 16.432 8.10157 16.5 7.9071 16.5C7.71263 16.5 7.54433 16.432 7.40222 16.2959C7.2601 16.1598 7.18905 15.9987 7.18905 15.8125V8.25C7.18905 7.49089 7.46954 6.84277 8.03051 6.30566C8.59149 5.76855 9.2684 5.5 10.0612 5.5H12.9334C13.7263 5.5 14.4032 5.76855 14.9642 6.30566C15.5251 6.84277 15.8056 7.49089 15.8056 8.25V15.8125C15.8056 15.9987 15.7346 16.1598 15.5925 16.2959C15.4503 16.432 15.2821 16.5 15.0876 16.5C14.8931 16.5 14.7248 16.432 14.5827 16.2959C14.4406 16.1598 14.3695 15.9987 14.3695 15.8125V12.7188C14.3695 12.6185 14.3321 12.5361 14.2573 12.4717C14.1825 12.4072 14.1003 12.375 14.0105 12.375H8.98417C8.87945 12.375 8.79344 12.4072 8.72612 12.4717C8.6588 12.5361 8.62515 12.6185 8.62515 12.7188V15.8125ZM8.98417 11H14.0105C14.1003 11 14.1825 10.9678 14.2573 10.9033C14.3321 10.8389 14.3695 10.7565 14.3695 10.6562V8.25C14.3695 7.86328 14.2274 7.53743 13.9432 7.27246C13.659 7.00749 13.3224 6.875 12.9334 6.875H10.0612C9.65734 6.875 9.31702 7.00749 9.04027 7.27246C8.76352 7.53743 8.62515 7.86328 8.62515 8.25V10.6562C8.62515 10.7565 8.6588 10.8389 8.72612 10.9033C8.79344 10.9678 8.87945 11 8.98417 11ZM11.4973 19.25C12.9484 19.25 14.2947 18.9277 15.5364 18.2832C16.778 17.6387 17.7952 16.765 18.5881 15.6621L17.2417 14.373C17.2268 13.9434 17.3614 13.7357 17.6456 13.75L22.1783 13.793C22.3578 13.793 22.5336 13.8753 22.7056 14.04C22.8777 14.2048 22.9637 14.3659 22.9637 14.5234L22.9861 18.8418C23.0011 19.1283 22.7916 19.2643 22.3578 19.25L20.6525 17.6387C19.5903 18.985 18.259 20.0485 16.6583 20.8291C15.0577 21.6097 13.3373 22 11.4973 22C9.94157 22 8.45311 21.71 7.03197 21.1299C5.61084 20.5498 4.38791 19.7692 3.36319 18.7881C2.33848 17.807 1.52319 16.6361 0.917341 15.2754C0.311487 13.9147 0.00856047 12.4896 0.00856047 11H2.88076C2.88076 12.4896 3.26596 13.8682 4.03636 15.1357C4.80677 16.4033 5.85393 17.4059 7.17783 18.1436C8.50173 18.8812 9.94157 19.25 11.4973 19.25Z" fill="#AAAAAA"/>
</svg>
