<svg width="19" height="18" viewBox="0 0 19 18" fill="none" xmlns="http://www.w3.org/2000/svg">
<path d="M0.680997 9.09822C0.59771 4.51322 4.66319 0.508219 9.69168 0.603219C14.335 0.688219 18.3796 4.34822 18.3796 9.10322C18.3796 13.8082 14.4026 17.6032 9.48346 17.5982C4.49661 17.5882 0.59771 13.5982 0.680997 9.09822ZM6.84949 7.72322C6.99524 7.81322 7.06291 7.86322 7.141 7.89822C7.72401 8.16822 8.31743 8.42822 8.89524 8.71322C9.27524 8.89822 9.62401 8.87322 10.004 8.69822C11.5969 7.94822 13.2054 7.22322 14.8035 6.48322C14.8972 6.43822 14.9648 6.35322 15.0481 6.28322C14.97 6.20322 14.9076 6.09322 14.8087 6.04822C14.2829 5.79322 13.752 5.55322 13.2158 5.31322C12.107 4.80322 10.9931 4.30322 9.88428 3.79322C9.58237 3.65322 9.29607 3.63322 8.98894 3.78822C8.76511 3.89822 8.53086 3.98822 8.30702 4.09322C6.88593 4.74822 5.46483 5.39822 4.04374 6.05822C3.95004 6.10322 3.88237 6.19822 3.80428 6.26822C3.88237 6.33822 3.94483 6.43822 4.03333 6.47822C4.80374 6.84322 5.57415 7.19822 6.34976 7.55322C6.41744 7.58322 6.52675 7.60322 6.58401 7.57322C7.26072 7.23322 7.92702 6.88322 8.59333 6.53322C8.68182 6.48822 8.78072 6.42322 8.82237 6.34322C9.01497 5.99322 9.16593 5.90822 9.58757 5.97322C9.77497 6.00322 9.99881 6.07322 9.96757 6.26822C9.94675 6.38822 9.72812 6.48822 9.59278 6.58822C9.56675 6.60822 9.50949 6.60322 9.46264 6.59322C9.18154 6.55322 8.93689 6.64822 8.69744 6.77822C8.29661 6.98822 7.88018 7.18322 7.47415 7.38822C7.29196 7.47322 7.09935 7.58322 6.84949 7.72322ZM12.9243 7.59822C12.7889 7.64822 12.7004 7.67322 12.6172 7.71322C11.6958 8.13322 10.7744 8.55322 9.85305 8.97822C9.56675 9.11322 9.29607 9.12822 9.00976 8.98822C8.74949 8.85822 8.47881 8.74322 8.21333 8.62322C7.84894 8.45822 7.48456 8.29822 7.10456 8.12822C7.08374 8.19822 7.06812 8.22822 7.07333 8.25822C7.15661 8.91822 7.2347 9.57822 7.3336 10.2332C7.34401 10.3082 7.44291 10.4032 7.521 10.4382C9.17634 11.1282 11.1596 10.8682 12.4974 9.70322C12.6848 9.53822 12.8774 9.29322 12.9087 9.06322C12.9711 8.59822 12.9243 8.11822 12.9243 7.59822ZM7.86976 15.0532C7.9999 15.0182 8.06757 15.0082 8.13004 14.9882C8.99935 14.6832 9.86867 14.3732 10.7328 14.0632C10.79 14.0432 10.8733 14.0232 10.8889 13.9832C11.0555 13.6132 11.2429 13.2432 11.347 12.8582C11.4043 12.6432 11.3783 12.4182 11.5709 12.2482C11.6073 12.2132 11.6125 12.1082 11.5865 12.0582C11.3678 11.6632 10.9514 11.4832 10.4933 11.5682C9.60319 11.7282 8.70785 11.8882 7.81771 12.0482C7.54702 12.0982 7.27113 12.1482 6.92757 12.2132C7.9947 12.9532 8.70785 13.7482 7.86976 15.0532ZM11.2325 11.4082C11.3887 11.5282 11.5188 11.6082 11.6281 11.7132C11.7322 11.8182 11.8103 11.9532 11.9092 12.0682C11.9404 12.1082 11.9821 12.1382 12.0289 12.1582C12.2996 12.2732 12.3777 12.4932 12.435 12.7532C12.4766 12.9482 12.6068 13.1232 12.7057 13.3032C12.867 13.5982 13.0961 13.4032 13.2939 13.3632C13.7832 13.2682 14.2673 13.1382 14.7618 13.0582C15.8185 12.8882 16.0163 11.7632 15.5791 11.0582C15.2563 10.5432 14.8607 10.4032 14.2621 10.5682C13.3407 10.8182 12.4141 11.0682 11.4928 11.3182C11.4147 11.3432 11.3418 11.3732 11.2325 11.4082ZM5.48565 13.9732C5.47524 13.5382 5.65744 13.1982 5.99059 13.0682C6.381 12.9182 6.75579 12.9832 7.0525 13.2582C7.22428 13.4132 7.37004 13.6132 7.45853 13.8232C7.62511 14.2282 7.44812 14.6232 7.09415 14.7382C6.68812 14.8682 6.24565 14.6482 6.0999 14.2382C6.01661 13.9982 6.07908 13.7582 6.25086 13.6532C6.43305 13.5482 6.64127 13.6032 6.83387 13.8182C6.84949 13.8382 6.87031 13.8532 6.88593 13.8732C6.97963 14.0082 7.10976 13.9832 7.19305 13.8932C7.2399 13.8482 7.2399 13.6932 7.19305 13.6432C7.0525 13.4882 6.90155 13.3232 6.71935 13.2332C6.21442 12.9882 5.70949 13.2482 5.65223 13.7882C5.63141 14.0182 5.67305 14.2782 5.77196 14.4882C6.03223 15.0482 6.73497 15.3132 7.32839 15.1082C7.87497 14.9232 8.17689 14.3782 8.05196 13.8232C7.9062 13.1982 7.53141 12.7482 6.93798 12.4632C6.56839 12.2832 6.19881 12.2782 5.80839 12.4282C4.84538 12.7982 4.79853 13.8082 5.03278 14.4782C5.04839 14.5182 5.13689 14.5632 5.18894 14.5582C5.41278 14.5432 5.50648 14.4182 5.48045 14.2032C5.48045 14.1232 5.48565 14.0482 5.48565 13.9732ZM6.7662 8.07322C6.74538 8.07322 6.72456 8.07322 6.70374 8.07322C6.68812 8.09322 6.6673 8.10822 6.66209 8.12822C6.53196 9.04322 6.40702 9.95322 6.2873 10.8682C6.27689 10.9332 6.29771 11.0232 6.33415 11.0782C6.43305 11.2132 6.77141 11.2432 6.99524 11.1582C7.21387 11.0732 7.15141 10.9032 7.13579 10.7532C7.07333 10.2582 7.00565 9.76322 6.93798 9.27322C6.88072 8.87322 6.81826 8.47322 6.7662 8.07322ZM5.94374 7.59322C5.7199 8.02822 5.87086 9.26822 6.19881 9.48322C6.27168 8.94822 6.34456 8.43822 6.40182 7.91822C6.40702 7.85822 6.32894 7.77322 6.26648 7.73322C6.17278 7.67322 6.05305 7.63822 5.94374 7.59322ZM11.7687 14.4282C11.7895 14.4132 11.8155 14.3982 11.8363 14.3832C11.8676 14.0882 11.9248 13.7932 11.9196 13.5032C11.9196 13.4182 11.7322 13.3332 11.6177 13.2682C11.5761 13.2432 11.4563 13.2482 11.4407 13.2732C11.2689 13.6282 11.1076 13.9882 10.915 14.4082C11.2585 14.3182 11.524 14.0832 11.7687 14.4282ZM7.40127 14.1482C7.37524 14.1232 7.34401 14.1032 7.31798 14.0782C7.26593 14.0832 7.20867 14.0682 7.17223 14.0882C6.94839 14.2182 6.80785 14.1532 6.71935 13.9282C6.70374 13.8932 6.67771 13.8482 6.64127 13.8332C6.55798 13.7982 6.46428 13.7432 6.3862 13.7632C6.32374 13.7782 6.23004 13.8932 6.24565 13.9432C6.29771 14.1282 6.34976 14.3332 6.4747 14.4682C6.64127 14.6482 6.90675 14.6732 7.11497 14.5432C7.24511 14.4632 7.30757 14.2832 7.40127 14.1482ZM12.2528 12.7632C12.2528 12.5082 12.0862 12.3182 11.8676 12.3182C11.675 12.3182 11.5032 12.5132 11.5084 12.7332C11.5084 12.9782 11.6958 13.1832 11.904 13.1782C12.1122 13.1732 12.2528 13.0032 12.2528 12.7632ZM12.31 14.2482C12.3361 14.2582 12.3569 14.2732 12.3829 14.2832C12.4818 14.0582 12.612 13.8782 12.9815 13.9732C12.7421 13.6432 12.5651 13.3932 12.3413 13.0782C12.2163 13.2382 12.0341 13.3682 12.0498 13.4732C12.0862 13.7432 12.2163 13.9932 12.31 14.2482Z" fill="#e8252a"/>
<path d="M6.8499 7.72341C7.10497 7.58842 7.29237 7.47842 7.49018 7.37842C7.8962 7.17342 8.30744 6.97841 8.71346 6.76841C8.95292 6.64341 9.19757 6.54341 9.47867 6.58341C9.52031 6.58841 9.57757 6.59842 9.60881 6.57842C9.74415 6.47842 9.96278 6.38341 9.9836 6.25841C10.0148 6.06341 9.791 5.98842 9.6036 5.96341C9.18196 5.89842 9.031 5.98341 8.8384 6.33341C8.79675 6.41341 8.69785 6.47841 8.60935 6.52341C7.94305 6.87841 7.27155 7.22342 6.60004 7.56342C6.54278 7.59342 6.43346 7.57341 6.36579 7.54341C5.59018 7.18841 4.81976 6.83341 4.04935 6.46841C3.96086 6.42341 3.89319 6.32841 3.82031 6.25841C3.89839 6.18841 3.96607 6.09341 4.05976 6.04841C5.48086 5.38841 6.90196 4.73341 8.32305 4.08341C8.54689 3.97841 8.78114 3.88841 9.00497 3.77841C9.30689 3.62341 9.5984 3.64841 9.90031 3.78341C11.0091 4.29341 12.1231 4.79841 13.2318 5.30341C13.7628 5.54841 14.2989 5.78841 14.8247 6.03841C14.9184 6.08342 14.9861 6.19341 15.0642 6.27341C14.9809 6.33841 14.9132 6.42841 14.8195 6.47341C13.2214 7.21341 11.6181 7.94342 10.02 8.68842C9.64004 8.86842 9.29127 8.88842 8.91127 8.70342C8.33346 8.42342 7.74004 8.16342 7.15703 7.88842C7.06333 7.85842 6.99566 7.80841 6.8499 7.72341Z" fill="white"/>
<path d="M12.9273 7.60156C12.9273 8.12656 12.9741 8.60156 12.9065 9.06656C12.8752 9.29656 12.6826 9.54156 12.4952 9.70656C11.1626 10.8716 9.17414 11.1316 7.5188 10.4416C7.43551 10.4066 7.34181 10.3116 7.3314 10.2366C7.2325 9.58156 7.15442 8.92156 7.07113 8.26156C7.06592 8.23156 7.08674 8.20156 7.10236 8.13156C7.48236 8.30156 7.84674 8.46156 8.21113 8.62656C8.47661 8.74656 8.74729 8.86156 9.00757 8.99156C9.29387 9.13156 9.56455 9.11656 9.85085 8.98156C10.767 8.55156 11.6936 8.13656 12.615 7.71656C12.7035 7.67656 12.792 7.65156 12.9273 7.60156Z" fill="white"/>
<path d="M7.87188 15.0525C8.70996 13.7525 7.99681 12.9525 6.92969 12.2125C7.27325 12.1475 7.54914 12.0975 7.81983 12.0475C8.70996 11.8875 9.60531 11.7325 10.4954 11.5675C10.9535 11.4825 11.37 11.6625 11.5886 12.0575C11.6146 12.1075 11.6094 12.2125 11.573 12.2475C11.3804 12.4175 11.4064 12.6425 11.3491 12.8575C11.245 13.2475 11.0576 13.6125 10.8911 13.9825C10.8754 14.0225 10.7922 14.0425 10.7349 14.0625C9.86558 14.3725 9.00147 14.6775 8.13215 14.9875C8.06969 15.0075 8.00202 15.0175 7.87188 15.0525Z" fill="white"/>
<path d="M11.2344 11.4056C11.3437 11.3706 11.4166 11.3406 11.4946 11.3156C12.416 11.0656 13.3426 10.8156 14.264 10.5656C14.8626 10.4006 15.253 10.5406 15.581 11.0556C16.0234 11.7556 15.8204 12.8856 14.7637 13.0556C14.2692 13.1356 13.7851 13.2656 13.2958 13.3606C13.0979 13.4006 12.8689 13.5956 12.7075 13.3006C12.6086 13.1206 12.4837 12.9456 12.4368 12.7506C12.3796 12.4906 12.3015 12.2706 12.0308 12.1556C11.984 12.1356 11.9423 12.1006 11.9111 12.0656C11.8174 11.9506 11.7393 11.8156 11.63 11.7106C11.5207 11.6056 11.3905 11.5256 11.2344 11.4056Z" fill="white"/>
<path d="M5.48513 13.9753C5.48513 14.0503 5.47993 14.1253 5.48513 14.2003C5.51116 14.4153 5.41746 14.5403 5.19363 14.5553C5.14157 14.5603 5.05308 14.5153 5.03746 14.4753C4.80842 13.8003 4.85007 12.7953 5.81308 12.4253C6.20349 12.2753 6.56787 12.2853 6.94267 12.4603C7.53609 12.7453 7.91609 13.1953 8.05664 13.8203C8.18157 14.3753 7.87965 14.9153 7.33308 15.1053C6.73965 15.3103 6.03692 15.0453 5.77664 14.4853C5.67774 14.2753 5.63609 14.0153 5.65691 13.7853C5.70897 13.2453 6.21911 12.9853 6.72404 13.2303C6.90623 13.3203 7.05719 13.4853 7.19774 13.6403C7.24459 13.6903 7.24459 13.8403 7.19774 13.8903C7.11445 13.9803 6.98431 14.0003 6.89061 13.8703C6.875 13.8503 6.85938 13.8303 6.83856 13.8153C6.64075 13.6003 6.43774 13.5403 6.25555 13.6503C6.08376 13.7503 6.0213 13.9953 6.10459 14.2353C6.25034 14.6453 6.6876 14.8653 7.09883 14.7353C7.45801 14.6203 7.635 14.2303 7.46322 13.8203C7.37472 13.6103 7.22897 13.4103 7.05719 13.2553C6.75527 12.9853 6.38048 12.9153 5.99527 13.0653C5.65691 13.2003 5.47472 13.5403 5.48513 13.9753Z" fill="white"/>
<path d="M6.76328 8.07031C6.82054 8.47031 6.8778 8.87031 6.93506 9.27031C7.00273 9.76531 7.0704 10.2603 7.13286 10.7503C7.15369 10.9003 7.21094 11.0703 6.99232 11.1553C6.76848 11.2403 6.43533 11.2153 6.33122 11.0753C6.28958 11.0203 6.27396 10.9353 6.28437 10.8653C6.4041 9.95031 6.53424 9.03531 6.65917 8.12531C6.66437 8.10531 6.68519 8.08531 6.70081 8.07031C6.71643 8.07031 6.73725 8.07031 6.76328 8.07031Z" fill="white"/>
<path d="M5.94642 7.59375C6.05573 7.63875 6.17546 7.67375 6.27436 7.73375C6.33683 7.77375 6.41491 7.86375 6.40971 7.91875C6.35245 8.43375 6.27957 8.94875 6.20669 9.48375C5.87875 9.26875 5.72779 8.02875 5.94642 7.59375Z" fill="white"/>
<path d="M11.7704 14.4264C11.5205 14.0764 11.2602 14.3164 10.9219 14.4064C11.1145 13.9814 11.2758 13.6214 11.4476 13.2714C11.458 13.2464 11.5778 13.2414 11.6246 13.2664C11.7391 13.3314 11.9213 13.4214 11.9265 13.5014C11.9317 13.7964 11.8745 14.0864 11.8432 14.3814C11.8172 14.3964 11.7964 14.4114 11.7704 14.4264Z" fill="white"/>
<path d="M7.39953 14.1505C7.30583 14.2855 7.24337 14.4605 7.11323 14.5406C6.90501 14.6706 6.63433 14.6456 6.47296 14.4655C6.34803 14.3305 6.29597 14.1255 6.24392 13.9405C6.2283 13.8905 6.322 13.7755 6.38446 13.7605C6.46255 13.7455 6.55624 13.7955 6.63953 13.8305C6.67597 13.8455 6.702 13.8905 6.71762 13.9255C6.80611 14.1505 6.94666 14.2105 7.17049 14.0855C7.20693 14.0655 7.2694 14.0755 7.31625 14.0755C7.34227 14.1055 7.37351 14.1305 7.39953 14.1505Z" fill="white"/>
<path d="M12.2522 12.7653C12.2522 13.0053 12.1116 13.1753 11.9034 13.1803C11.69 13.1853 11.5078 12.9803 11.5078 12.7353C11.5078 12.5153 11.6744 12.3253 11.867 12.3203C12.0856 12.3203 12.247 12.5103 12.2522 12.7653Z" fill="white"/>
<path d="M12.3133 14.2509C12.2196 13.9959 12.0895 13.7459 12.0478 13.4809C12.0322 13.3759 12.2144 13.2459 12.3393 13.0859C12.5632 13.4009 12.7453 13.6509 12.9796 13.9809C12.6152 13.8809 12.4851 14.0659 12.381 14.2909C12.3653 14.2759 12.3393 14.2659 12.3133 14.2509Z" fill="white"/>
</svg>
