<svg width="15" height="15" viewBox="0 0 15 15" fill="none" xmlns="http://www.w3.org/2000/svg">
<path d="M0.835938 3.33594H1.66927V4.16927H0.835938V3.33594Z" fill="#AAAAAA"/>
<path d="M2.91667 4.16927H12.9167C13.0272 4.16927 13.1332 4.12537 13.2113 4.04723C13.2894 3.96909 13.3333 3.86311 13.3333 3.7526C13.3333 3.6421 13.2894 3.53612 13.2113 3.45798C13.1332 3.37984 13.0272 3.33594 12.9167 3.33594H2.91667C2.80616 3.33594 2.70018 3.37984 2.62204 3.45798C2.5439 3.53612 2.5 3.6421 2.5 3.7526C2.5 3.86311 2.5439 3.96909 2.62204 4.04723C2.70018 4.12537 2.80616 4.16927 2.91667 4.16927Z" fill="#AAAAAA"/>
<path d="M0.835938 5.83594H1.66927V6.66927H0.835938V5.83594Z" fill="#AAAAAA"/>
<path d="M12.9167 5.83594H2.91667C2.80616 5.83594 2.70018 5.87984 2.62204 5.95798C2.5439 6.03612 2.5 6.1421 2.5 6.2526C2.5 6.36311 2.5439 6.46909 2.62204 6.54723C2.70018 6.62537 2.80616 6.66927 2.91667 6.66927H12.9167C13.0272 6.66927 13.1332 6.62537 13.2113 6.54723C13.2894 6.46909 13.3333 6.36311 13.3333 6.2526C13.3333 6.1421 13.2894 6.03612 13.2113 5.95798C13.1332 5.87984 13.0272 5.83594 12.9167 5.83594Z" fill="#AAAAAA"/>
<path d="M0.835938 8.33594H1.66927V9.16927H0.835938V8.33594Z" fill="#AAAAAA"/>
<path d="M12.9167 8.33594H2.91667C2.80616 8.33594 2.70018 8.37984 2.62204 8.45798C2.5439 8.53612 2.5 8.6421 2.5 8.7526C2.5 8.86311 2.5439 8.96909 2.62204 9.04723C2.70018 9.12537 2.80616 9.16927 2.91667 9.16927H12.9167C13.0272 9.16927 13.1332 9.12537 13.2113 9.04723C13.2894 8.96909 13.3333 8.86311 13.3333 8.7526C13.3333 8.6421 13.2894 8.53612 13.2113 8.45798C13.1332 8.37984 13.0272 8.33594 12.9167 8.33594Z" fill="#AAAAAA"/>
<path d="M0.835938 10.8359H1.66927V11.6693H0.835938V10.8359Z" fill="#AAAAAA"/>
<path d="M12.9167 10.8359H2.91667C2.80616 10.8359 2.70018 10.8798 2.62204 10.958C2.5439 11.0361 2.5 11.1421 2.5 11.2526C2.5 11.3631 2.5439 11.4691 2.62204 11.5472C2.70018 11.6254 2.80616 11.6693 2.91667 11.6693H12.9167C13.0272 11.6693 13.1332 11.6254 13.2113 11.5472C13.2894 11.4691 13.3333 11.3631 13.3333 11.2526C13.3333 11.1421 13.2894 11.0361 13.2113 10.958C13.1332 10.8798 13.0272 10.8359 12.9167 10.8359Z" fill="#AAAAAA"/>
</svg>
