<svg width="23" height="23" viewBox="0 0 23 23" fill="none" xmlns="http://www.w3.org/2000/svg">
<path d="M1.42606 2.69531C1.28406 2.69531 1.14786 2.75441 1.04745 2.85961C0.947037 2.9648 0.890625 3.10748 0.890625 3.25625V19.1868C0.890625 19.3356 0.947037 19.4782 1.04745 19.5834C1.14786 19.6886 1.28406 19.7477 1.42606 19.7477H15.7501C15.5629 19.4897 15.3761 19.2314 15.1881 18.9736C14.9542 18.6122 14.6145 18.3028 14.5149 17.8634C13.1378 18.4589 11.5555 18.5141 10.1423 18.0198C10.1113 18.0093 10.0809 17.9963 10.05 17.9853C9.8879 18.1513 9.71313 18.4407 9.68551 18.6259H7.64934C7.80227 18.0831 7.47758 17.2356 7.7847 16.6832C7.80912 16.6765 7.83868 16.6332 7.85217 16.5885C7.81747 16.5544 7.78235 16.5212 7.74851 16.4864C7.44738 16.5825 7.32701 16.8201 7.15953 17.0285C7.25098 17.4827 6.59089 17.3752 6.6575 17.8385C7.11733 18.2121 6.23301 17.9274 5.97 17.9572C5.69093 17.9604 4.87449 17.6543 5.15785 18.2803C5.11351 18.4522 5.15442 18.5576 5.23602 18.6259H5.11094C5.09145 18.4293 4.73806 18.4001 4.60185 18.3036C4.37247 18.2453 4.09854 18.2161 3.86102 18.1053C3.79998 18.283 3.24912 18.4863 3.12854 18.6259H1.9615V10.4293C2.12577 10.5446 2.49415 10.4988 1.99213 10.2498H1.9615V7.66631C2.05895 7.61471 2.12856 7.59833 2.12427 7.68471C2.36565 7.59945 2.47081 6.98399 2.88845 7.23596C3.14889 7.27613 3.57981 7.69907 3.36328 7.75202C3.53204 8.18372 3.65177 7.90572 3.85888 8.42021C3.71709 9.12385 4.26003 9.64529 4.55794 10.0938C4.91476 10.2491 5.0559 10.7324 5.63589 10.7512C5.7147 10.8235 5.81579 10.889 5.92117 10.9518C5.95008 10.7198 5.99099 10.4896 6.0426 10.2621C6.02868 10.2587 6.01519 10.2567 6.0002 10.2515C5.44227 10.7907 5.3279 9.85732 5.87276 9.82075C5.90917 9.81828 5.94837 9.8203 5.99056 9.82636C6.05374 9.81851 6.10621 9.82636 6.15055 9.84274C6.32947 9.22822 6.59458 8.64499 6.93721 8.11214C7.12121 7.82451 7.32774 7.55343 7.55468 7.30171C7.44202 7.10426 7.3268 6.99409 7.1908 7.25189C7.18052 6.86934 6.19317 6.46838 6.91965 6.83546C7.30067 7.17942 7.42553 6.77577 7.48571 6.50024C7.81233 6.14349 7.15096 6.02165 7.27154 5.78853C7.07107 5.47373 6.77423 5.15131 6.46924 4.95633C5.87769 5.02813 5.67037 4.89732 6.46132 4.89687C6.53264 4.50982 6.65107 4.23564 6.73268 3.90985C6.64701 3.88404 6.55748 3.88808 6.46924 3.88786C6.09079 3.83468 5.86612 3.98793 5.87383 4.29061C5.58962 4.26683 5.84492 3.75929 5.40672 3.91434C4.74235 3.90334 5.5455 4.13848 5.48382 4.17237C5.40779 4.35097 4.92911 4.23968 4.98544 4.42075C4.76612 3.99578 4.66632 4.62336 4.49562 4.19346C4.39281 4.09024 4.92611 4.29532 4.80467 3.91905C4.5361 3.81135 4.43993 3.99982 4.23068 4.07678C3.60615 4.43892 4.3397 4.77952 4.65689 4.90023C5.13493 4.76673 5.1345 4.598 5.4669 4.78356C5.83957 5.00008 5.0906 4.84795 5.11351 5.18115C5.07068 4.97405 5.01713 4.84908 4.78583 5.11451C4.47741 5.17285 4.3397 4.72881 4.10946 4.76C3.58473 4.68528 3.7807 5.92158 4.21291 5.50066C4.47441 5.97476 3.87879 5.62496 3.7021 5.57201C3.30309 6.03893 2.87324 5.55989 2.39692 5.5406C2.24442 5.43424 2.09493 5.4329 1.9615 5.48697V3.81718H7.57781C7.1773 3.82862 6.81963 3.88404 6.96527 4.18583C6.94171 4.76785 7.66048 4.30564 7.76393 4.83202C8.06249 5.19977 7.58638 5.98172 8.10275 5.8444C7.91278 6.0865 7.93655 6.4722 8.08476 6.77622C8.63303 6.29415 9.25482 5.91216 9.9241 5.64628C9.93588 5.57717 9.92667 5.49774 9.88726 5.40395C9.82022 5.05191 10.1321 4.9395 10.0228 4.54909C10.1698 4.25516 10.0558 3.94418 9.80394 3.81718H21.4514V5.4053C21.4182 5.39038 21.3841 5.37779 21.3493 5.3676C21.0475 5.65413 21.2914 5.68128 21.4514 5.61688V5.86728C21.0946 5.65705 20.7027 5.63394 20.3221 5.72144C20.1492 5.40665 19.5373 5.41405 19.336 5.13067C18.9813 4.68551 19.4442 4.81834 19.7537 4.78401C19.6658 4.50578 19.139 4.37385 18.9164 4.41985C18.5144 4.65051 19.1276 4.85738 19.0657 5.16701C19.0657 5.39206 18.8038 5.39363 18.5753 5.38129C18.6676 5.14301 18.1377 4.84997 17.9276 5.04383C17.5299 4.91773 17.3782 4.99178 17.6406 4.55784C17.5489 4.2242 17.1701 4.21791 17.0002 3.98636C16.7833 4.46831 16.4215 4.32225 16.0339 4.61573C15.8786 4.85356 15.5552 5.06717 15.5391 5.22423C15.2988 5.34247 15.0583 4.73913 14.8897 5.27359C14.7368 5.72593 14.8983 5.94514 14.3824 5.57493C13.8484 4.97876 15.455 4.46809 14.8578 4.21432C14.3622 4.36578 14.0643 4.73173 13.9658 5.2516C13.9125 5.36985 13.9367 5.45219 13.993 5.51883C15.8743 6.10669 17.4311 7.69167 18.064 9.63609C18.0739 9.51897 18.0925 9.40633 18.13 9.32399C18.2883 9.19744 18.1628 9.80976 18.4898 9.46153C18.2489 10.0034 19.0955 9.53333 19.2101 9.30963C19.0422 8.86806 19.8141 8.66007 19.7961 8.57682C19.5119 8.26449 19.6733 8.57525 19.3598 8.64683C19.2559 8.50188 19.559 7.70715 19.1557 7.78007C18.5534 7.61762 19.668 7.15295 19.9689 7.32392C20.106 6.7926 20.303 7.21577 19.9644 7.46011C19.8355 7.93152 19.8972 8.57458 20.2765 7.94454C20.4469 7.77065 20.4045 7.31741 20.6264 7.23843C20.9246 7.09124 21.4566 6.97614 21.4426 6.52111C21.4456 6.52021 21.4484 6.52044 21.4514 6.51976V18.6259H20.6035C20.7873 18.3593 21.0304 17.9034 20.7729 17.738C20.385 17.6678 20.0953 17.1777 19.6264 17.1982C19.4148 16.9428 18.9276 16.8136 18.7965 16.7638C18.6654 16.714 18.438 17.0018 18.205 16.8746C18.1348 16.8627 18.0632 16.8641 17.9936 16.8787C18.6948 17.8322 19.3893 18.791 20.0865 19.7477H21.9869C22.1289 19.7477 22.2651 19.6886 22.3655 19.5834C22.4659 19.4782 22.5223 19.3356 22.5223 19.1868V3.25625C22.5223 3.10748 22.4659 2.9648 22.3655 2.85961C22.2651 2.75441 22.1289 2.69531 21.9869 2.69531H1.42606ZM11.8542 3.88898C11.5094 4.06691 12.1209 4.77526 12.1378 4.09899C12.201 4.19772 12.6248 4.29734 12.4863 3.97896C12.1783 3.78891 12.225 4.00745 11.854 3.88921L11.8542 3.88898ZM16.7976 3.88943C16.4256 4.07925 17.1232 4.08284 16.7976 3.88943V3.88943ZM4.97944 3.95382C4.70101 4.17057 5.38809 4.38507 5.01585 3.96527L4.97944 3.95382ZM7.25933 4.08239C7.32894 4.1524 7.19058 4.12749 7.25933 4.08239V4.08239ZM4.57015 4.35972C4.60292 4.39943 4.55302 4.36263 4.57015 4.35972V4.35972ZM5.52387 4.45216C5.85948 4.51319 5.49817 4.59576 5.52387 4.45216V4.45216ZM5.99399 4.49255C6.31311 4.47123 6.11114 4.57556 5.99399 4.49255V4.49255ZM5.05697 4.50736C5.26451 4.52979 5.03041 4.6081 5.05697 4.50736V4.50736ZM5.72134 4.82327C5.93123 4.87398 5.61811 4.89171 5.72134 4.82327V4.82327ZM5.86934 5.17307C5.74297 5.59534 6.31846 6.16705 5.87191 5.68577C5.74918 5.49325 5.68536 5.30882 5.86934 5.17307ZM5.12015 5.2157C5.30413 5.53768 5.58427 5.62361 5.34975 5.73446C5.19404 5.65548 5.15806 5.40934 5.12015 5.21548V5.2157ZM8.00702 5.54037C8.03293 5.55855 7.9372 5.54486 8.00702 5.54037V5.54037ZM3.66441 5.64201C3.64042 5.74388 3.63121 5.64358 3.66441 5.64201V5.64201ZM5.32298 5.8067C5.30798 6.01896 5.2251 5.80289 5.32298 5.8067V5.8067ZM6.55405 5.80805C6.47395 6.22314 6.79179 6.19667 6.77037 6.2384C6.50779 6.35956 6.57055 6.85857 6.36965 6.47781C6.24286 6.41588 6.43476 5.86796 6.52107 5.81994L6.55405 5.80805ZM5.26322 5.8085C5.29128 5.81523 5.26129 5.90565 5.26322 5.8085V5.8085ZM20.7558 5.84574C20.7643 5.861 20.7185 5.88389 20.7558 5.84574V5.84574ZM5.27864 5.90004C5.42471 6.06025 5.08289 6.04589 5.27864 5.90004V5.90004ZM12.0847 6.1206C10.9168 6.1291 9.78313 6.53495 8.85451 7.27702C6.47931 9.17186 6.01712 12.7439 7.82582 15.2322C9.51888 17.5614 12.6105 18.1233 14.9471 16.6318L15.3935 17.246C15.3057 17.46 15.3138 17.6646 15.416 17.8055L18.6543 22.2605C18.8471 22.5255 19.3125 22.4938 19.6937 22.1896C20.0749 21.8856 20.2276 21.424 20.0351 21.1588L16.7968 16.7039C16.6944 16.563 16.5083 16.5001 16.2879 16.532L15.8415 15.9181C17.8353 13.9548 18.1409 10.6835 16.4481 8.35424C15.5436 7.11009 14.2389 6.36741 12.8634 6.17221C12.6054 6.13561 12.3451 6.11836 12.0847 6.1206ZM6.00448 6.68333C6.13834 7.0163 6.65536 6.82087 6.45296 7.27478C6.67828 7.49691 6.4172 8.27998 6.3296 7.61269C5.76889 7.60977 5.50117 7.02371 5.97193 6.71609L6.00448 6.68333ZM6.49301 6.73853C6.66435 6.8911 6.22315 6.82357 6.49301 6.73853V6.73853ZM19.9492 7.14868C19.9642 7.13746 20.0015 7.21801 19.9492 7.14868V7.14868ZM12.3004 7.37777C12.9219 7.40259 13.5304 7.57165 14.082 7.87275C14.6336 8.17385 15.1145 8.59947 15.4901 9.11891C15.8265 9.57971 16.0728 10.1056 16.2147 10.6664C16.3566 11.2271 16.3914 11.8117 16.3171 12.3866C16.2428 12.9615 16.0609 13.5154 15.7817 14.0164C15.5025 14.5174 15.1316 14.9558 14.6903 15.3062C14.2505 15.6587 13.7485 15.9167 13.2132 16.0654C12.6779 16.2141 12.1198 16.2506 11.5711 16.1728C11.0223 16.0949 10.4936 15.9043 10.0153 15.6118C9.53701 15.3193 9.11859 14.9308 8.78404 14.4684C8.44762 14.0076 8.20138 13.4817 8.05947 12.921C7.91756 12.3602 7.88277 11.7756 7.9571 11.2007C8.03143 10.6258 8.21341 10.0719 8.49259 9.5709C8.77178 9.06988 9.14267 8.63156 9.58399 8.2811C10.3613 7.65757 11.3221 7.33806 12.3004 7.37777ZM20.565 7.60887C20.2287 7.90033 20.9687 7.84693 20.565 7.60887V7.60887ZM20.9655 7.85165C20.5932 8.04214 21.2908 8.04236 20.9655 7.85165V7.85165ZM21.2079 7.9405C20.8759 8.22994 21.5463 8.07781 21.2079 7.9405V7.9405ZM21.1946 8.00332C21.213 8.0031 21.1833 8.02374 21.1946 8.00332V8.00332ZM21.2263 8.03945C21.2364 8.0565 21.1996 8.04304 21.2263 8.03945V8.03945ZM12.1584 8.27324C11.6902 8.26449 11.228 8.37421 10.8018 8.57121C10.8241 8.59971 10.856 8.62708 10.9027 8.65176C10.4743 8.50592 10.3497 9.07291 10.53 9.32803L10.8198 9.35293L11.062 9.24119C11.2186 9.07067 11.2576 9.10006 11.3081 8.84181L11.4025 8.8546L11.4775 8.82184L11.6482 8.91024C11.853 8.99416 11.8626 9.175 11.7941 9.22796C11.697 9.29056 11.8114 9.29976 11.8208 9.33857C11.8692 9.32399 11.8975 9.28023 11.9279 9.2569L11.9827 9.23626C12.1828 9.09872 12.0431 9.05339 11.9041 8.86783L11.9778 8.88758C12.0856 9.01547 12.1489 9.16019 12.2128 9.31389C12.2201 9.31995 12.2267 9.3278 12.235 9.33049C12.2834 9.34732 12.3518 9.34171 12.4102 9.32488C12.4681 9.30828 12.4719 9.19273 12.4621 9.08211C12.5445 9.47611 13.3533 9.35899 12.872 9.59929C12.5946 9.6058 12.1539 9.4465 12.0727 9.64776C11.8932 9.5625 11.8016 9.50663 11.7651 9.46287C11.6546 9.41935 11.3366 9.29325 11.3252 9.29325C11.3117 9.29325 10.9069 9.37043 10.9069 9.37043L10.5728 9.50326C10.4642 9.86989 10.2929 9.67379 10.2347 9.95807C10.189 10.1398 9.79645 10.5325 10.0021 10.8417C10.1856 11.736 11.2498 11.1405 11.4979 11.57C11.3813 11.8345 11.9577 12.3378 11.6351 12.771C11.7872 13.4004 12.1959 14.4525 12.8534 13.5568C13.0268 13.0205 13.4004 12.7307 13.3871 12.1987C13.1886 11.6748 14.3573 11.2864 13.8898 10.8621C13.7777 10.876 13.7649 10.9013 13.676 10.9323C13.4893 10.9249 13.4411 10.7672 13.3775 10.668C13.3289 10.5956 13.2859 10.5193 13.2489 10.4398C13.3678 10.6328 13.4905 10.7966 13.6627 10.8973C13.9607 10.8273 14.3023 10.5964 14.4413 10.427C14.4378 9.76668 15.2851 10.4517 15.268 10.948C15.3204 11.0817 15.3871 11.1746 15.4539 11.2289C15.4064 10.9115 15.316 10.6028 15.1853 10.3121C14.9478 9.766 14.5674 9.29706 14.1052 8.94614C14.0967 8.96005 14.0752 8.96095 14.0795 8.92729C14.017 8.88092 13.9531 8.8367 13.8878 8.79469C13.8949 8.82588 13.9035 8.85751 13.9133 8.8896C13.8853 8.84585 13.8557 8.80142 13.8313 8.75856C13.3267 8.44713 12.748 8.26853 12.1586 8.27302L12.1584 8.27324ZM19.127 8.30286C19.2823 8.76642 18.5868 9.84072 18.4857 9.13551C18.5571 8.78684 19.1278 8.83956 19.127 8.30309V8.30286ZM6.08908 8.42515C6.12035 8.42133 6.08415 8.44197 6.08908 8.42515V8.42515ZM6.41912 8.58827C6.48145 8.64256 6.34373 8.6291 6.41912 8.58827V8.58827ZM12.8504 8.60307C13.0232 8.75565 13.5535 8.95758 12.9922 8.79648C12.7 8.93627 12.6096 8.84674 12.8504 8.60307ZM11.5143 8.87457C11.4767 8.88668 11.5086 8.96858 11.485 8.99438C11.6456 9.07673 11.5557 8.91652 11.5795 8.89027C11.5469 8.87412 11.5268 8.8703 11.5143 8.87457ZM13.963 9.04172C14.0127 9.17702 14.0457 9.26341 13.918 9.09557C13.9286 9.0902 13.938 9.08267 13.9457 9.07342C13.9534 9.06417 13.9593 9.05339 13.963 9.04172ZM11.5293 9.05855C11.4664 9.05137 11.433 9.09557 11.4327 9.15728C11.5987 9.25174 11.5816 9.0958 11.6019 9.08391C11.5794 9.07085 11.5547 9.06225 11.5291 9.05855H11.5293ZM14.0939 10.0195C14.1885 10.0236 14.0033 10.1631 14.035 10.0274C14.0613 10.0213 14.0804 10.0189 14.0939 10.0195ZM20.6179 10.8973C20.3094 11.2406 20.9854 11.3009 20.6179 10.8973V10.8973ZM20.5964 10.9507C20.6281 10.9471 20.5907 10.9736 20.5964 10.9507V10.9507ZM20.623 10.9998C20.626 11.0229 20.5909 10.9942 20.623 10.9998V10.9998ZM20.8472 11.0447C20.5485 11.3171 21.2079 11.2179 20.8472 11.0447V11.0447ZM20.8794 11.1221C20.9021 11.1181 20.8751 11.1551 20.8794 11.1221V11.1221ZM20.8372 11.134C20.8569 11.1618 20.8198 11.1497 20.8372 11.134V11.134ZM18.3962 11.4867C18.4016 11.6267 18.4026 11.7665 18.3996 11.9063C18.6453 11.9474 18.9531 11.9357 18.9589 12.2204C19.3992 12.2404 18.9134 12.9142 18.8974 12.2904C18.718 12.2634 18.535 12.2958 18.3742 12.3833C18.3295 12.8729 18.2338 13.356 18.0889 13.8238C18.4487 13.7042 18.8158 13.7159 19.0325 14.0823C19.6033 14.08 19.1178 14.4877 19.5223 14.571C19.6948 14.2021 19.4315 14.2485 19.7549 13.9479C20.0687 13.5276 19.8633 12.9849 19.5504 12.7553C19.4853 12.4955 19.2259 12.3551 19.348 12.1778C19.5857 12.5155 19.9226 12.2626 19.6414 12.08C19.849 11.8769 20.5904 12.6032 20.1741 12.0445C19.9685 12.0046 19.686 11.5592 19.6219 11.8459C19.6035 12.0838 19.037 11.4849 18.828 11.7299C18.7676 11.5092 18.472 11.6424 18.4553 11.7409C18.5461 11.5929 18.489 11.5163 18.3962 11.4867ZM19.4859 11.6786C19.179 11.8612 19.7631 11.8549 19.4859 11.6786V11.6786ZM11.4683 11.6943C11.4929 11.7526 11.4612 11.7039 11.4683 11.6943V11.6943ZM8.77976 11.7216C8.7734 12.0332 8.80646 12.3443 8.87807 12.6467C9.12437 12.2559 9.11473 11.8888 8.77976 11.7216ZM19.4701 11.7324C19.4885 11.7463 19.4474 11.7378 19.4701 11.7324V11.7324ZM19.6776 11.7593C19.7776 11.8334 19.5774 11.8334 19.6776 11.7593V11.7593ZM19.6776 11.7616C19.5864 11.8302 19.7687 11.8302 19.6776 11.7616V11.7616ZM19.4907 11.7811C19.4941 11.8038 19.459 11.7771 19.4907 11.7811V11.7811ZM18.3979 12.0248C18.3958 12.0786 18.3913 12.1325 18.3879 12.1863C18.457 12.1047 18.487 12.0203 18.3979 12.0248ZM13.5162 12.2575C13.2687 12.3999 13.7812 12.465 13.567 12.2978L13.5578 12.2738L13.5162 12.2575ZM13.8058 12.2974C13.5612 12.4576 13.1817 13.2214 13.7079 13.2454C13.8347 13.0874 14.1562 12.3831 13.8058 12.2974ZM20.4401 12.7838C20.2441 13.1888 21.0092 13.0268 20.4401 12.7838V12.7838ZM14.1977 12.8377C13.8795 13.0614 14.5064 13.0331 14.1977 12.8377V12.8377ZM20.9509 13.7612C21.1321 14.1909 20.5311 14.4482 20.5765 14.8472C20.8849 15.0029 21.0441 14.4168 21.2612 14.2375C21.518 14.0024 21.0591 13.9328 20.9509 13.7612ZM6.70655 15.0828C6.74167 15.3193 6.84747 15.5481 7.03638 15.6179C6.91826 15.4452 6.80819 15.2666 6.70655 15.0828Z" fill="#AAAAAA"/>
</svg>
