<svg width="19" height="19" viewBox="0 0 19 19" fill="none" xmlns="http://www.w3.org/2000/svg">
<path d="M9.49644 0C6.38975 0 3.84375 2.5384 3.84375 5.63654C3.84375 6.83696 4.22717 7.95264 4.87602 8.86958L8.80655 15.6646C9.35698 16.3837 9.72292 16.2471 10.1806 15.6266L14.5161 8.24885C14.6035 8.09039 14.6722 7.92167 14.7321 7.74934C15.0072 7.07892 15.1487 6.36121 15.1486 5.63654C15.1488 2.5384 12.6035 0 9.49644 0ZM9.49644 2.641C11.1696 2.641 12.5 3.96834 12.5 5.63654C12.5 7.30474 11.1696 8.63151 9.49644 8.63151C7.82349 8.63151 6.49254 7.30493 6.49254 5.63654C6.49254 3.96834 7.82349 2.64119 9.49644 2.64119V2.641Z" fill="#AAAAAA"/>
<path d="M13.0951 9.28906L13.0859 9.313C13.0888 9.30578 13.0911 9.29837 13.0939 9.29115L13.0951 9.28906V9.28906Z" fill="#AAAAAA"/>
<path d="M6.45958 13.1172C3.77564 13.4964 1.89844 14.4037 1.89844 15.7392C1.89844 17.5381 5.03496 18.9964 9.49844 18.9964C13.9619 18.9964 17.0984 17.5381 17.0984 15.7392C17.0984 14.4037 15.2214 13.4964 12.5377 13.1172L12.1658 13.7503C14.1886 14.0309 15.5784 14.6207 15.5784 15.305C15.5784 16.2645 12.8563 17.0422 9.49844 17.0422C6.14057 17.0422 3.41844 16.2645 3.41844 15.305C3.41825 14.6229 4.79898 14.0337 6.82799 13.752C6.70544 13.5403 6.58213 13.329 6.45939 13.1172H6.45958Z" fill="#AAAAAA"/>
</svg>
