<svg width="22" height="17" viewBox="0 0 22 17" fill="none" xmlns="http://www.w3.org/2000/svg">
<path d="M11 11.1009C11 10.6287 10.9678 10.1952 10.9033 9.80046C10.8389 9.40571 10.7332 9.02572 10.5864 8.66048C10.4396 8.29525 10.223 8.00749 9.93652 7.7972C9.65007 7.58691 9.30273 7.48177 8.89453 7.48177C8.85156 7.51128 8.74414 7.57769 8.57227 7.68099C8.40039 7.78429 8.26611 7.86361 8.16943 7.91895C8.07275 7.97428 7.94564 8.03885 7.78809 8.11263C7.63053 8.18641 7.47656 8.23991 7.32617 8.27311C7.17578 8.30631 7.02539 8.32292 6.875 8.32292C6.72461 8.32292 6.57422 8.30631 6.42383 8.27311C6.27344 8.23991 6.11947 8.18641 5.96191 8.11263C5.80436 8.03885 5.67725 7.97428 5.58057 7.91895C5.48389 7.86361 5.34961 7.78429 5.17773 7.68099C5.00586 7.57769 4.89844 7.51128 4.85547 7.48177C4.44727 7.48177 4.09993 7.58691 3.81348 7.7972C3.52702 8.00749 3.31038 8.29525 3.16357 8.66048C3.01676 9.02572 2.91113 9.40571 2.84668 9.80046C2.78223 10.1952 2.75 10.6287 2.75 11.1009C2.75 11.5731 2.88249 11.966 3.14746 12.2796C3.41243 12.5932 3.73828 12.75 4.125 12.75H9.625C10.0117 12.75 10.3376 12.5932 10.6025 12.2796C10.8675 11.966 11 11.5731 11 11.1009ZM9.31348 5.3457C9.31348 4.65213 9.07536 4.06 8.59912 3.56934C8.12288 3.07867 7.54818 2.83333 6.875 2.83333C6.20182 2.83333 5.62712 3.07867 5.15088 3.56934C4.67464 4.06 4.43652 4.65213 4.43652 5.3457C4.43652 6.03928 4.67464 6.6314 5.15088 7.12207C5.62712 7.61274 6.20182 7.85807 6.875 7.85807C7.54818 7.85807 8.12288 7.61274 8.59912 7.12207C9.07536 6.6314 9.31348 6.03928 9.31348 5.3457ZM19.25 10.9792V10.2708C19.25 10.1675 19.2178 10.0827 19.1533 10.0163C19.0889 9.94987 19.0065 9.91667 18.9062 9.91667H12.7188C12.6185 9.91667 12.5361 9.94987 12.4717 10.0163C12.4072 10.0827 12.375 10.1675 12.375 10.2708V10.9792C12.375 11.0825 12.4072 11.1673 12.4717 11.2337C12.5361 11.3001 12.6185 11.3333 12.7188 11.3333H18.9062C19.0065 11.3333 19.0889 11.3001 19.1533 11.2337C19.2178 11.1673 19.25 11.0825 19.25 10.9792ZM19.25 8.10156V7.48177C19.25 7.37109 19.2124 7.27702 19.1372 7.19954C19.062 7.12207 18.9707 7.08333 18.8633 7.08333H12.7617C12.6543 7.08333 12.563 7.12207 12.4878 7.19954C12.4126 7.27702 12.375 7.37109 12.375 7.48177V8.10156C12.375 8.21224 12.4126 8.30631 12.4878 8.38379C12.563 8.46126 12.6543 8.5 12.7617 8.5H18.8633C18.9707 8.5 19.062 8.46126 19.1372 8.38379C19.2124 8.30631 19.25 8.21224 19.25 8.10156ZM19.25 5.3125V4.60417C19.25 4.50087 19.2178 4.41602 19.1533 4.34961C19.0889 4.2832 19.0065 4.25 18.9062 4.25H12.7188C12.6185 4.25 12.5361 4.2832 12.4717 4.34961C12.4072 4.41602 12.375 4.50087 12.375 4.60417V5.3125C12.375 5.4158 12.4072 5.50065 12.4717 5.56706C12.5361 5.63346 12.6185 5.66667 12.7188 5.66667H18.9062C19.0065 5.66667 19.0889 5.63346 19.1533 5.56706C19.2178 5.50065 19.25 5.4158 19.25 5.3125ZM22 1.77083V15.2292C22 15.7161 21.8317 16.133 21.4951 16.4798C21.1585 16.8266 20.7539 17 20.2812 17H16.5V15.9375C16.5 15.8342 16.4678 15.7493 16.4033 15.6829C16.3389 15.6165 16.2565 15.5833 16.1562 15.5833H15.4688C15.3685 15.5833 15.2861 15.6165 15.2217 15.6829C15.1572 15.7493 15.125 15.8342 15.125 15.9375V17H6.875V15.9375C6.875 15.8342 6.84277 15.7493 6.77832 15.6829C6.71387 15.6165 6.63151 15.5833 6.53125 15.5833H5.84375C5.74349 15.5833 5.66113 15.6165 5.59668 15.6829C5.53223 15.7493 5.5 15.8342 5.5 15.9375V17H1.71875C1.24609 17 0.841471 16.8266 0.504883 16.4798C0.168294 16.133 0 15.7161 0 15.2292V1.77083C0 1.28385 0.168294 0.86697 0.504883 0.520182C0.841471 0.173394 1.24609 0 1.71875 0H20.2812C20.7539 0 21.1585 0.173394 21.4951 0.520182C21.8317 0.86697 22 1.28385 22 1.77083Z" fill="#AAAAAA"/>
</svg>
