<svg width="15" height="19" viewBox="0 0 15 19" fill="none" xmlns="http://www.w3.org/2000/svg">
<path fill-rule="evenodd" clip-rule="evenodd" d="M7.19169 19C6.85254 18.8643 6.48203 18.7741 6.18063 18.5835C5.52791 18.1696 5.22377 17.5428 5.18389 16.7733C5.11204 16.7733 5.04354 16.7733 4.97504 16.7733C3.54598 16.7733 2.11723 16.7733 0.688176 16.7733C0.214159 16.7733 -0.00625822 16.5592 0.000135085 16.1033C0.0132261 15.1989 0.12039 14.309 0.583752 13.5045C0.803256 13.1235 1.06569 12.7578 1.35704 12.4242C2.03655 11.6449 2.29381 10.7376 2.30294 9.74599C2.31055 8.9362 2.30599 8.12641 2.3069 7.31632C2.30873 5.07757 3.67111 3.22389 5.85914 2.48401C5.88837 2.47402 5.91668 2.46022 5.959 2.44259C5.80617 2.11862 5.72671 1.78671 5.7876 1.43571C5.91394 0.707576 6.41749 0.195031 7.16063 0.0343654C7.19747 0.0264349 7.23248 0.0117489 7.26841 0C7.42215 0 7.5762 0 7.72994 0C7.96649 0.0895852 8.22162 0.148623 8.43534 0.274336C9.07741 0.652357 9.48627 1.51678 9.04118 2.43877C9.10511 2.46433 9.16752 2.49223 9.23176 2.51456C11.3059 3.23153 12.679 5.09813 12.6911 7.22498C12.6957 8.05327 12.6921 8.88157 12.6942 9.70986C12.6963 10.7441 12.9654 11.6893 13.694 12.4794C14.6627 13.53 15.011 14.7848 14.9997 16.1594C14.9964 16.541 14.7644 16.7724 14.3677 16.7727C12.9262 16.7742 11.4843 16.7733 10.0425 16.7733C9.97277 16.7733 9.90306 16.7733 9.82664 16.7733C9.80107 16.939 9.79102 17.0993 9.75023 17.2518C9.50028 18.1829 8.88591 18.7542 7.91169 18.9636C7.87577 18.9712 7.84198 18.9874 7.80727 19C7.60177 19 7.39658 19 7.19169 19Z" fill="black"/>
<path fill-rule="evenodd" clip-rule="evenodd" d="M9.26074 16.8105C9.21385 17.7595 8.45335 18.475 7.49192 18.475C7.4767 18.475 7.46118 18.475 7.44595 18.4747C6.49731 18.4515 5.74564 17.7114 5.73438 16.7891" fill="white"/>
<path fill-rule="evenodd" clip-rule="evenodd" d="M8.64767 16.7891C7.87926 16.7891 7.11541 16.7891 6.35156 16.7891C6.35856 17.3897 6.85359 17.8729 7.46278 17.8879C8.1012 17.9034 8.6154 17.4367 8.64767 16.7891Z" fill="white"/>
<path fill-rule="evenodd" clip-rule="evenodd" d="M14.4613 15.5359C14.4366 15.4196 14.4144 15.3053 14.3925 15.1928C14.3429 14.9387 14.2917 14.6758 14.2217 14.4159C14.0275 13.6942 13.5629 13.1453 13.1522 12.6597C12.5561 11.9548 12.2334 11.1394 12.1935 10.2368C12.1676 9.64468 12.1643 9.03609 12.1612 8.44747C12.1591 8.07914 12.1573 7.69819 12.1497 7.32164C12.1424 6.96623 12.1141 6.6587 12.0626 6.38114C11.6997 4.42554 9.93698 2.92462 7.8823 2.76101C8.34901 2.60681 8.68755 2.17974 8.69059 1.67982C8.69425 1.05126 8.16725 0.532543 7.51544 0.523438H7.4987C6.85602 0.523438 6.32142 1.02776 6.30711 1.64781C6.30071 1.95269 6.42523 2.25434 6.64961 2.47551C6.78295 2.6071 6.94705 2.70491 7.12423 2.76307C6.97566 2.7757 6.82771 2.79508 6.68188 2.82181C5.56883 3.02771 4.61197 3.56522 3.9151 4.3756C3.21762 5.18657 2.84772 6.19227 2.84529 7.28404C2.84468 7.56454 2.84529 7.84534 2.84559 8.12585C2.8465 8.66894 2.84772 9.23083 2.8392 9.78068C2.82093 10.9935 2.47417 11.9624 1.77974 12.7435C1.62264 12.9203 1.48686 13.1024 1.35565 13.2786L1.33982 13.2998C0.861841 13.9418 0.607936 14.7026 0.563183 15.626C0.555267 15.7879 0.61646 15.9462 0.732757 16.0637C0.849054 16.1809 1.0098 16.2473 1.17785 16.2473H13.8576C14.0421 16.2473 14.2171 16.1677 14.3337 16.0296C14.4513 15.8916 14.4978 15.7106 14.4613 15.5359Z" fill="white"/>
<path fill-rule="evenodd" clip-rule="evenodd" d="M10.6875 2.01562C10.6875 2.01562 13.4317 3.03014 13.6625 6.32071Z" fill="white"/>
<path d="M13.661 6.57341C13.5273 6.57341 13.4144 6.47355 13.4052 6.34255C13.1879 3.24554 10.6205 2.26128 10.5946 2.25188C10.4622 2.20283 10.3961 2.05979 10.4467 1.93231C10.4975 1.80454 10.6458 1.7411 10.7782 1.78986C10.808 1.80072 11.5213 2.06919 12.2651 2.7612C12.9501 3.39799 13.7925 4.53058 13.917 6.30907C13.9264 6.44565 13.8196 6.56372 13.6783 6.57253C13.6725 6.57312 13.6665 6.57341 13.661 6.57341Z" fill="#E7282C"/>
<path d="M1.24911 6.57341C1.38276 6.57341 1.49571 6.47355 1.50484 6.34255C1.72191 3.24554 4.28958 2.26128 4.31546 2.25188C4.44759 2.20283 4.51365 2.05979 4.46311 1.93231C4.41227 1.80454 4.26431 1.7411 4.13188 1.78986C4.10174 1.80072 3.38874 2.06919 2.64468 2.7612C1.95998 3.39799 1.11729 4.53058 0.992769 6.30907C0.983331 6.44565 1.08989 6.56372 1.23115 6.57253C1.23754 6.57312 1.24333 6.57341 1.24911 6.57341Z" fill="#E7282C"/>
</svg>
