<svg width="25" height="26" viewBox="0 0 25 26" fill="none" xmlns="http://www.w3.org/2000/svg">
<path d="M15 0H11V3H15V0Z" fill="#999999"/>
<path d="M22.9483 4.76989L20.0625 2L17.9851 4.16433L20.8709 6.93422L22.9483 4.76989Z" fill="#999999"/>
<path d="M4.88559 2.00335L2 4.77344L4.07756 6.93763L6.96315 4.16755L4.88559 2.00335Z" fill="#999999"/>
<path d="M12.5 23C18.299 23 23 18.299 23 12.5C23 6.70101 18.299 2 12.5 2C6.70101 2 2 6.70101 2 12.5C2 18.299 6.70101 23 12.5 23Z" fill="#999999"/>
<path d="M12.5 19C16.0899 19 19 16.0899 19 12.5C19 8.91015 16.0899 6 12.5 6C8.91015 6 6 8.91015 6 12.5C6 16.0899 8.91015 19 12.5 19Z" fill="white"/>
<path d="M12.5 17C14.9853 17 17 14.9853 17 12.5C17 10.0147 14.9853 8 12.5 8C10.0147 8 8 10.0147 8 12.5C8 14.9853 10.0147 17 12.5 17Z" fill="#999999"/>
<path d="M0 10L0 14H3L3 10H0Z" fill="#999999"/>
<path d="M22 10V14H25V10H22Z" fill="#999999"/>
<path d="M15 25.0625H11V22.0625H15V25.0625Z" fill="#999999"/>
<path d="M22.9483 20.2086L20.0625 23.0312L17.9851 20.8257L20.8709 18.0032L22.9483 20.2086Z" fill="#999999"/>
<path d="M4.88559 23.0259L2 20.2031L4.07757 17.9978L6.96316 20.8205L4.88559 23.0259Z" fill="#999999"/>
<path d="M10 12L12 14L15 11" fill="white"/>
</svg>
