<svg width="23" height="24" viewBox="0 0 23 24" fill="none" xmlns="http://www.w3.org/2000/svg">
<path d="M9.36094 19.6797C9.12094 19.6797 8.96094 19.9197 8.96094 20.3197C8.96094 20.6397 9.12094 20.9597 9.44094 20.9597C9.68094 20.9597 9.84094 20.7197 9.84094 20.3197C9.84094 19.9997 9.68094 19.6797 9.36094 19.6797Z" fill="#AAAAAA"/>
<path d="M2.95688 19.6797C2.95688 19.7597 2.87687 19.9197 2.87687 19.9997L2.79688 20.3997H3.19688L3.11686 19.9997C3.03686 19.9197 3.03688 19.8397 2.95688 19.6797Z" fill="#AAAAAA"/>
<path d="M1.44125 19.6797H1.28125V20.2397H1.44125C1.68125 20.2397 1.76125 20.1597 1.76125 19.9197C1.76125 19.6797 1.68125 19.6797 1.44125 19.6797Z" fill="#AAAAAA"/>
<path d="M7.5975 19.6797H7.4375V20.2397H7.5975C7.8375 20.2397 7.9175 20.1597 7.9175 19.9197C7.9175 19.6797 7.7575 19.6797 7.5975 19.6797Z" fill="#AAAAAA"/>
<path d="M11.1209 19.6797H10.9609V20.1597H11.1209C11.3609 20.1597 11.4409 20.0797 11.4409 19.9197C11.4409 19.7597 11.2809 19.6797 11.1209 19.6797Z" fill="#AAAAAA"/>
<path d="M23.1181 5.84502L11.4381 0.0850177C11.3714 0.0430788 11.2965 0.0158471 11.2184 0.00514006C11.1404 -0.00556702 11.061 0.000496754 10.9854 0.0229267C10.9099 0.0453566 10.84 0.0836368 10.7805 0.135213C10.7209 0.186788 10.6731 0.250473 10.6401 0.322018L10.6391 0.325018V0.405018L10.3991 0.805018L9.03906 3.60502H13.9351C14.6331 3.60502 15.1991 4.17102 15.1991 4.86902V4.88602V4.88502V23.285C15.2791 23.205 15.3591 23.125 15.3591 23.045L23.3591 6.64502C23.3985 6.57768 23.4237 6.50296 23.4331 6.42548C23.4425 6.348 23.4359 6.26942 23.4137 6.19461C23.3914 6.1198 23.3541 6.05034 23.3039 5.99055C23.2538 5.93076 23.1919 5.88191 23.1221 5.84702L23.1191 5.84602L23.1181 5.84502Z" fill="#AAAAAA"/>
<path d="M9.20344 14.6403C8.66619 14.4562 8.10567 14.3488 7.53844 14.3213L7.52344 14.3203V16.6403C7.93254 16.4562 8.29528 16.183 8.5851 15.8405C8.87492 15.4981 9.08448 15.0952 9.19844 14.6613L9.20344 14.6403Z" fill="#AAAAAA"/>
<path d="M9.43962 9.68263C8.85372 9.89688 8.23447 10.0056 7.61063 10.0036L7.51562 10.0026H7.52063V11.2826H9.68062C9.67373 10.7263 9.58926 10.1736 9.42964 9.64062L9.44063 9.68263H9.43962Z" fill="#AAAAAA"/>
<path d="M7.52344 7.11719V9.27719L7.59844 9.27819C8.17744 9.27819 8.72944 9.16019 9.23044 8.94719L9.20344 8.95719C9.09932 8.53805 8.89306 8.15122 8.60305 7.8312C8.31305 7.51118 7.94833 7.26794 7.54144 7.12319L7.52344 7.11719Z" fill="#AAAAAA"/>
<path d="M10.2376 14.1622C10.5276 14.3212 10.7516 14.5712 10.8746 14.8732L10.8776 14.8822C11.5193 14.1491 11.9112 13.2308 11.9966 12.2602L11.9976 12.2422H10.4776C10.5178 12.9048 10.4327 13.5691 10.2266 14.2002L10.2376 14.1632V14.1622Z" fill="#AAAAAA"/>
<path d="M3.92188 15.5191C4.17388 15.7431 4.46386 15.9311 4.78086 16.0711L4.80187 16.0791C4.58087 15.7791 4.39187 15.4361 4.25187 15.0691L4.24186 15.0391C4.09303 15.1633 3.98273 15.3274 3.92387 15.5121L3.92188 15.5191Z" fill="#AAAAAA"/>
<path d="M10.3212 7.92313C10.0212 7.68813 9.68225 7.45113 9.33025 7.23213L9.28125 7.20312C9.56625 7.54812 9.80825 7.94414 9.98925 8.37214L10.0013 8.40312C10.1613 8.40312 10.3212 8.16313 10.3212 7.92313Z" fill="#AAAAAA"/>
<path d="M9.4415 16.0791C9.7505 15.9321 10.0145 15.7441 10.2415 15.5191C10.2282 15.4206 10.1928 15.3264 10.1379 15.2436C10.083 15.1608 10.01 15.0916 9.9245 15.0411L9.9215 15.0391C9.8395 15.4381 9.6715 15.7881 9.4375 16.0841L9.4415 16.0791Z" fill="#AAAAAA"/>
<path d="M10.5603 11.361H12.0803C11.9754 10.3728 11.613 9.42935 11.0293 8.625L11.0403 8.641C10.8882 8.95118 10.6384 9.20277 10.3293 9.357L10.3203 9.361C10.4003 10.001 10.4803 10.641 10.5603 11.361Z" fill="#AAAAAA"/>
<path d="M9.68344 12.2422H7.52344V13.4422C8.1952 13.4592 8.85815 13.5991 9.47944 13.8552L9.44344 13.8422C9.59688 13.3239 9.67765 12.7867 9.68344 12.2462V12.2422Z" fill="#AAAAAA"/>
<path d="M4.71706 7.4405C4.42283 7.55252 4.15091 7.71608 3.91406 7.9235L3.91706 7.9205C3.92298 8.01224 3.94718 8.10187 3.98822 8.18412C4.02926 8.26638 4.08633 8.33961 4.15606 8.3995L4.15706 8.4005C4.28506 8.0295 4.47606 7.7095 4.71906 7.4375L4.71706 7.4405Z" fill="#AAAAAA"/>
<path d="M3.91625 9.28062C3.66771 9.11057 3.45248 8.89635 3.28125 8.64862L3.27625 8.64062C2.63062 9.43353 2.24047 10.4035 2.15725 11.4226L2.15625 11.4406H3.59625C3.61225 10.6887 3.72484 9.94188 3.93125 9.21863L3.91625 9.28062Z" fill="#AAAAAA"/>
<path d="M6.64356 16.4803V14.3203C6.07887 14.3822 5.52093 14.4949 4.97656 14.6573L5.04356 14.6403C5.14229 15.0498 5.33734 15.4299 5.61249 15.7489C5.88765 16.0679 6.23496 16.3166 6.62556 16.4743L6.64356 16.4803Z" fill="#AAAAAA"/>
<path d="M14.2436 5.11756V5.09356C14.2435 4.94006 14.1864 4.79206 14.0833 4.67838C13.9801 4.56469 13.8383 4.49347 13.6856 4.47856H0.642569C0.626569 4.47656 0.607569 4.47656 0.588569 4.47656C0.506573 4.47676 0.425518 4.49405 0.350576 4.52732C0.275634 4.5606 0.208451 4.60913 0.153313 4.66982C0.0981746 4.73051 0.056292 4.80202 0.0303372 4.87981C0.00438244 4.95759 -0.00507464 5.03992 0.00256937 5.12156V5.11956V23.3686C0.00256937 23.7176 0.285569 23.9996 0.633569 23.9996H13.6026C13.7681 23.988 13.924 23.9171 14.0415 23.7999C14.1591 23.6827 14.2305 23.5271 14.2426 23.3616V23.3596L14.2436 5.11756ZM1.36357 11.1976C1.48425 9.84189 2.07632 8.57141 3.0368 7.60709C3.99728 6.64278 5.26539 6.04565 6.62057 5.91956L6.64357 5.91756V5.83756H7.52357V5.91756C8.27467 5.97666 9.00677 6.18311 9.67807 6.52514C10.3494 6.86717 10.9467 7.33807 11.4361 7.91096C11.9254 8.48385 12.2971 9.14751 12.5299 9.86405C12.7627 10.5806 12.8522 11.336 12.7931 12.0871C12.734 12.8382 12.5275 13.5703 12.1855 14.2416C11.8435 14.9129 11.3726 15.5102 10.7997 15.9996C10.2268 16.4889 9.56312 16.8606 8.84658 17.0934C8.13005 17.3262 7.37466 17.4157 6.62357 17.3566L6.64357 17.3576C3.66657 17.0946 1.35057 14.6136 1.35057 11.5906C1.35057 11.4526 1.35557 11.3146 1.36457 11.1796L1.36357 11.1976ZM1.44357 20.5576H1.28357V21.1976H0.883569V19.3576H1.44357C1.64478 19.3353 1.84669 19.3931 2.00557 19.5186L2.00357 19.5176C2.16357 19.5976 2.16357 19.7576 2.16357 19.9176C2.16122 20.066 2.10426 20.2084 2.00357 20.3176C1.9355 20.3933 1.85222 20.4538 1.75917 20.4952C1.66612 20.5365 1.56539 20.5578 1.46357 20.5576H1.44257H1.44357ZM3.36357 21.1976L3.20357 20.7176H2.72357L2.56357 21.1976H2.16357L2.72357 19.3576H3.28357L3.84357 21.1976H3.36357ZM4.48357 21.1976C4.3172 21.2105 4.15023 21.182 3.99757 21.1146L4.00357 21.1176L4.08357 20.7976C4.23583 20.8638 4.40211 20.8912 4.56757 20.8776H4.56357C4.72357 20.8776 4.80357 20.7976 4.80357 20.7176C4.80357 20.6376 4.72357 20.5576 4.48357 20.4776C4.24357 20.3176 4.00357 20.1576 4.00357 19.9176C4.00357 19.5976 4.24357 19.3576 4.72357 19.3576C4.88994 19.3447 5.05691 19.3732 5.20957 19.4406L5.20357 19.4376L5.12357 19.7576C5.00296 19.684 4.86014 19.6556 4.72057 19.6776H4.72357C4.56357 19.6776 4.48357 19.7576 4.48357 19.8376C4.48357 19.9176 4.56357 19.9976 4.80357 20.0776C5.07357 20.1276 5.27657 20.3576 5.28357 20.6366V20.6376C5.28357 20.9576 5.04357 21.1976 4.48357 21.1976ZM6.00357 21.1976C5.8372 21.2105 5.67023 21.182 5.51757 21.1146L5.52357 21.1176V20.7976C5.67583 20.8638 5.84211 20.8912 6.00757 20.8776H6.00357C6.16357 20.8776 6.32357 20.7976 6.32357 20.7176C6.32357 20.6376 6.24357 20.5576 6.00357 20.4776C5.87209 20.4656 5.74985 20.4049 5.66085 20.3074C5.57185 20.2099 5.52252 20.0826 5.52257 19.9506L5.52357 19.9156V19.9176C5.52357 19.5976 5.76357 19.3576 6.24357 19.3576C6.40994 19.3447 6.57691 19.3732 6.72957 19.4406L6.72357 19.4376L6.64357 19.7576C6.52296 19.684 6.38014 19.6556 6.24057 19.6776H6.24357C6.08357 19.6776 6.00357 19.7576 6.00357 19.8376C6.00357 19.9176 6.08357 19.9976 6.32357 20.0776C6.59357 20.1276 6.79657 20.3576 6.80357 20.6366V20.6376C6.76995 20.8178 6.66678 20.9776 6.51634 21.0823C6.3659 21.1871 6.18027 21.2285 5.99957 21.1976L6.00357 21.1986V21.1976ZM8.16357 20.3976C8.09561 20.4766 8.00586 20.5338 7.90554 20.5621C7.80523 20.5904 7.6988 20.5885 7.59957 20.5566L7.60357 20.5576H7.44357V21.1976H7.04357V19.3576H7.60357C7.80478 19.3353 8.00668 19.3931 8.16557 19.5186L8.16357 19.5176C8.32357 19.5976 8.32357 19.7576 8.32357 19.9176C8.30557 20.0976 8.24857 20.2606 8.16057 20.4026L8.16357 20.3976ZM10.2436 20.2376C10.2598 20.3539 10.2516 20.4724 10.2195 20.5855C10.1873 20.6985 10.1319 20.8036 10.0567 20.8939C9.98162 20.9843 9.88846 21.058 9.78321 21.1103C9.67797 21.1626 9.56297 21.1923 9.44557 21.1976H9.28357C9.05083 21.1955 8.8282 21.1021 8.66362 20.9375C8.49904 20.7729 8.40566 20.5503 8.40357 20.3176V20.2376C8.38582 20.0056 8.45893 19.7757 8.60745 19.5966C8.75597 19.4175 8.96829 19.3031 9.19957 19.2776H9.28757C9.50658 19.2776 9.71771 19.3593 9.8797 19.5067C10.0417 19.654 10.1429 19.8565 10.1636 20.0746V20.0786L10.2436 20.2376ZM11.4436 21.1976C11.3636 21.0376 11.3636 20.9576 11.2836 20.7976C11.2036 20.5576 11.1236 20.4776 10.9636 20.4776H10.8036V21.1976H10.4036V19.3576H10.9636C11.0632 19.3404 11.1654 19.346 11.2625 19.3739C11.3596 19.4018 11.4492 19.4512 11.5246 19.5186L11.5236 19.5176C11.624 19.6264 11.681 19.7684 11.6836 19.9166V19.9176C11.6809 20.0191 11.6498 20.1178 11.5937 20.2025C11.5377 20.2872 11.459 20.3544 11.3666 20.3966L11.3636 20.3976C11.5236 20.4776 11.5236 20.5576 11.6036 20.7176C11.6216 20.8976 11.6786 21.0606 11.7666 21.2026L11.7636 21.1976H11.4436ZM13.4436 19.7576H12.9636V21.1976H12.5636V19.7576H12.0036V19.4376H13.3636V19.7576H13.4436Z" fill="#AAAAAA"/>
<path d="M3.92219 14.1562C3.77163 13.5175 3.66637 12.8689 3.60719 12.2153L3.60219 12.1562H2.24219C2.34807 13.119 2.71071 14.0356 3.29219 14.8103L3.28219 14.7963C3.45619 14.5433 3.66919 14.3303 3.91419 14.1613L3.92219 14.1562Z" fill="#AAAAAA"/>
<path d="M6.63656 12.2422H4.47656C4.47756 12.8132 4.56556 13.3642 4.72756 13.8812L4.71656 13.8422C5.32771 13.6332 5.96206 13.4996 6.60556 13.4442L6.63656 13.4422V12.2422Z" fill="#AAAAAA"/>
<path d="M6.64094 6.96094C5.76094 7.12094 5.20094 8.08094 4.96094 8.80094C5.45194 8.99694 6.02094 9.13794 6.61394 9.19894L6.64094 9.20094V6.96094Z" fill="#AAAAAA"/>
<path d="M6.63657 11.3571V10.0771C5.96481 10.0601 5.30185 9.92011 4.68057 9.66406L4.71657 9.67706C4.55675 10.2224 4.47592 10.7878 4.47657 11.3561V11.3571H6.63657Z" fill="#AAAAAA"/>
</svg>
