<svg width="20" height="20" viewBox="0 0 20 20" fill="none" xmlns="http://www.w3.org/2000/svg">
<path d="M10.9193 2.66927C12.6211 2.66927 14.2532 3.34531 15.4565 4.54867C16.6599 5.75203 17.3359 7.38413 17.3359 9.0859C17.3359 9.3291 17.4325 9.5622 17.6044 9.7341C17.7763 9.906 18.0095 10.0026 18.2526 10.0026C18.4957 10.0026 18.7289 9.906 18.9008 9.7341C19.0727 9.5622 19.1693 9.3291 19.1693 9.0859C19.1693 6.8979 18.3001 4.79948 16.7529 3.25231C15.2057 1.70513 13.1073 0.835938 10.9193 0.835938C10.6762 0.835938 10.443 0.932507 10.2711 1.10442C10.0992 1.27633 10.0026 1.50949 10.0026 1.7526C10.0026 1.99572 10.0992 2.22888 10.2711 2.40079C10.443 2.57269 10.6762 2.66927 10.9193 2.66927ZM18.9401 13.5868C18.8897 13.4396 18.8026 13.3077 18.6872 13.2035C18.5717 13.0992 18.4316 13.0261 18.2801 12.9909L12.7801 11.7351C12.6308 11.7013 12.4754 11.7053 12.3281 11.747C12.1808 11.7886 12.0463 11.8665 11.9368 11.9734C11.8084 12.0926 11.7993 12.1018 11.2034 13.2384C9.2264 12.3274 7.64218 10.7367 6.73927 8.75594C7.90344 8.16927 7.9126 8.16927 8.03177 8.03177C8.13875 7.92228 8.21661 7.78774 8.25825 7.64043C8.29988 7.49312 8.30395 7.33773 8.2701 7.18844L7.01427 1.7526C6.97911 1.60108 6.90597 1.46099 6.80174 1.34552C6.6975 1.23006 6.56559 1.14302 6.41844 1.0926C6.20437 1.01614 5.98331 0.960878 5.75844 0.927598C5.52675 0.873878 5.29033 0.843178 5.0526 0.835938C3.93427 0.835938 2.86175 1.28019 2.07097 2.07097C1.28019 2.86175 0.835941 3.93428 0.835941 5.0526C0.840791 8.79509 2.32963 12.3829 4.97597 15.0292C7.62231 17.6756 11.2101 19.1644 14.9526 19.1693C15.5063 19.1693 16.0547 19.0602 16.5663 18.8483C17.0778 18.6364 17.5427 18.3258 17.9342 17.9342C18.3258 17.5427 18.6364 17.0778 18.8483 16.5663C19.0602 16.0547 19.1693 15.5063 19.1693 14.9526C19.1696 14.7193 19.1512 14.4863 19.1143 14.2559C19.0757 14.0283 19.0175 13.8044 18.9401 13.5868Z" fill="#AAAAAA"/>
</svg>
