<svg width="25" height="23" viewBox="0 0 25 23" fill="none" xmlns="http://www.w3.org/2000/svg">
<path d="M22.026 0.789061C21.5441 0.789061 21.1317 0.92565 20.7886 1.19883C20.4455 1.47201 20.2739 1.8004 20.2739 2.18401C20.2739 2.32351 20.3104 2.47463 20.3834 2.63737L16.1127 5.56677C15.7769 5.35752 15.4119 5.2529 15.0177 5.2529C14.5505 5.2529 14.1417 5.38659 13.7912 5.65395L10.4404 4.31131C10.4112 3.95095 10.2324 3.6458 9.90384 3.39588C9.57533 3.14595 9.17747 3.02098 8.71025 3.02098C8.38904 3.02098 8.09337 3.08201 7.82326 3.20407C7.55315 3.32613 7.34145 3.49468 7.18814 3.70974C7.03483 3.92479 6.95818 4.16019 6.95818 4.41593C6.95818 4.61355 7.01658 4.81117 7.13339 5.00879L3.71685 8.13C3.51245 8.0719 3.30804 8.0428 3.10363 8.0428C2.62181 8.0428 2.20935 8.1794 1.86623 8.4526C1.52312 8.7257 1.35156 9.0541 1.35156 9.4378C1.35156 9.8214 1.52312 10.1498 1.86623 10.4229C2.20935 10.6961 2.62181 10.8327 3.10363 10.8327C3.58545 10.8327 3.99792 10.6961 4.34103 10.4229C4.68414 10.1498 4.8557 9.8214 4.8557 9.4378C4.8557 9.2634 4.8119 9.089 4.72429 8.9146L8.18463 5.74114C8.37444 5.78763 8.54964 5.81088 8.71025 5.81088C8.95846 5.81088 9.19207 5.7702 9.41108 5.68883C9.63008 5.60745 9.82719 5.49702 10.0024 5.35752L13.2656 6.66529C13.2656 6.85128 13.3131 7.02856 13.408 7.19712C13.5029 7.36567 13.627 7.51098 13.7803 7.63304C13.9336 7.7551 14.1198 7.8539 14.3388 7.92946C14.5578 8.005 14.7841 8.0428 15.0177 8.0428C15.1491 8.0428 15.2805 8.0312 15.4119 8.0079C15.5433 7.98468 15.6674 7.94981 15.7842 7.90331C15.901 7.85681 16.0105 7.80159 16.1127 7.73766C16.2149 7.67372 16.3062 7.60107 16.3865 7.5197C16.4668 7.43833 16.5362 7.35114 16.5946 7.25814C16.653 7.16515 16.6968 7.06634 16.726 6.96172C16.7552 6.8571 16.7698 6.75248 16.7698 6.64785V6.57811L21.3251 3.4569C21.5441 3.53828 21.7778 3.57896 22.026 3.57896C22.5078 3.57896 22.9203 3.44237 23.2634 3.1692C23.6065 2.89602 23.778 2.56762 23.778 2.18401C23.778 1.8004 23.6065 1.47201 23.2634 1.19883C22.9203 0.92565 22.5078 0.789061 22.026 0.789061Z" fill="#999999"/>
<path d="M4.38832 12.3516H1.97656C1.42428 12.3516 0.976562 12.7993 0.976562 13.3516V21.9951C0.976562 22.5474 1.42428 22.9951 1.97656 22.9951H4.38832C4.94061 22.9951 5.38832 22.5474 5.38832 21.9951V13.3516C5.38832 12.7993 4.94061 12.3516 4.38832 12.3516Z" fill="#999999"/>
<path d="M10.6383 9.1328H8.22656C7.67428 9.1328 7.22656 9.58052 7.22656 10.1328V21.9986C7.22656 22.5509 7.67428 22.9986 8.22656 22.9986H10.6383C11.1906 22.9986 11.6383 22.5509 11.6383 21.9986V10.1328C11.6383 9.58052 11.1906 9.1328 10.6383 9.1328Z" fill="#999999"/>
<path d="M16.8884 11.9609H14.4766C13.9243 11.9609 13.4766 12.4086 13.4766 12.9609V21.995C13.4766 22.5473 13.9243 22.995 14.4766 22.995H16.8884C17.4406 22.995 17.8884 22.5473 17.8884 21.995V12.9609C17.8884 12.4086 17.4406 11.9609 16.8884 11.9609Z" fill="#999999"/>
<path d="M23.1384 6.29688H20.7266C20.1743 6.29688 19.7266 6.74459 19.7266 7.29688V21.9945C19.7266 22.5468 20.1743 22.9945 20.7266 22.9945H23.1384C23.6906 22.9945 24.1384 22.5468 24.1384 21.9945V7.29688C24.1384 6.74459 23.6906 6.29688 23.1384 6.29688Z" fill="#999999"/>
<path d="M24.4141 21.8281H0.585879C0.262307 21.8281 0 22.0904 0 22.414V22.414C0 22.7376 0.262307 22.9999 0.585879 22.9999H24.4141C24.7377 22.9999 25 22.7376 25 22.414C25 22.0904 24.7377 21.8281 24.4141 21.8281Z" fill="#999999"/>
</svg>
