<svg width="24" height="25" viewBox="0 0 24 25" fill="none" xmlns="http://www.w3.org/2000/svg">
<path d="M19.9385 23.7214V18.5646C21.2308 18.3583 22.1538 17.1206 22.1538 15.4705C22.1538 13.8203 20.8615 12.3764 19.3846 12.3764C17.9077 12.3764 16.6154 13.8203 16.6154 15.4705C16.6154 16.9144 17.5385 18.3583 18.8308 18.5646V23.7214H11.0769V0H1.84615V23.7214H0V24.7527H24V23.7214H19.9385ZM9.23077 18.5646H3.69231V16.5018H9.23077V18.5646ZM9.23077 14.4391H3.69231V12.3764H9.23077V14.4391ZM9.23077 10.3136H3.69231V8.25091H9.23077V10.3136ZM9.23077 6.18819H3.69231V4.12546H9.23077V6.18819Z" fill="#AAAAAA"/>
</svg>
