<svg width="19" height="23" viewBox="0 0 19 23" fill="none" xmlns="http://www.w3.org/2000/svg">
<path d="M11.75 0.25H0.5V22.75H18.5V7L11.75 0.25ZM9.5 18.25C7.19375 18.25 5.21375 16.855 4.3475 14.875H6.27125C6.98 15.8875 8.16125 16.5625 9.5 16.5625C11.6713 16.5625 13.4375 14.7963 13.4375 12.625C13.4375 10.4537 11.6713 8.6875 9.5 8.6875C8.77867 8.69016 8.07193 8.89091 7.45691 9.26786C6.8419 9.6448 6.34225 10.1834 6.0125 10.825L7.8125 12.625H3.3125V8.125L4.775 9.5875C5.77625 8.035 7.50875 7 9.5 7C12.605 7 15.125 9.52 15.125 12.625C15.125 15.73 12.605 18.25 9.5 18.25Z" fill="#34BF49"/>
</svg>
 