<svg width="15" height="19" viewBox="0 0 15 19" fill="none" xmlns="http://www.w3.org/2000/svg">
<path fill-rule="evenodd" clip-rule="evenodd" d="M7.23119 0C7.41084 0 7.59016 0 7.76947 0C7.80999 0.0137862 7.84983 0.0310992 7.89134 0.0413588C8.43162 0.176977 8.83244 0.482198 9.06522 0.972411C9.122 1.092 9.18808 1.11572 9.30896 1.1154C10.9613 1.1122 12.6134 1.11316 14.2658 1.11348C14.7941 1.11348 14.995 1.30777 14.995 1.8185C14.995 7.29645 14.993 12.7744 15 18.2523C15.0007 18.597 14.904 18.8512 14.5723 19C9.85754 19 5.14279 19 0.428041 19C0.0953052 18.8522 -0.00033121 18.5973 8.61049e-07 18.2527C0.00797057 12.7619 0.00564614 7.27144 0.00564614 1.78099C0.00564614 1.32188 0.22116 1.11348 0.696355 1.11316C2.35505 1.11316 4.01341 1.11091 5.67211 1.11669C5.81324 1.11701 5.88331 1.08302 5.94275 0.955098C6.10546 0.605312 6.37411 0.343053 6.73308 0.177939C6.89247 0.10484 7.06482 0.058351 7.23119 0Z" fill="#010101"/>
<path fill-rule="evenodd" clip-rule="evenodd" d="M13.8208 1.64511H11.5258C11.1861 1.64511 11.3013 1.9109 11.3013 2.23888C11.3013 2.23888 11.3013 3.43508 11.3013 3.7714C11.3013 3.80667 11.2993 3.83392 11.297 3.85444C11.2771 3.85636 11.2512 3.85797 11.2183 3.85797H4.17874C4.13324 3.85797 3.61123 3.85284 3.69026 3.85284V1.64062H1.16187C0.822162 1.64062 0.546875 1.90641 0.546875 2.2344V17.8763C0.546875 18.204 0.822162 18.4701 1.16187 18.4701H13.8208C14.1601 18.4701 14.4358 18.204 14.4358 17.8763V2.23888C14.4358 1.9109 14.1605 1.64511 13.8208 1.64511Z" fill="white"/>
<path fill-rule="evenodd" clip-rule="evenodd" d="M10.2755 1.63628H9.38118C9.16268 1.63628 8.94584 1.63628 8.72899 1.63595C8.71604 1.63595 8.70508 1.63563 8.69579 1.63499C8.69413 1.62473 8.69247 1.61287 8.69114 1.59812C8.63435 0.985437 8.12363 0.523438 7.50265 0.523438C7.50133 0.523438 7.49668 0.523438 7.49568 0.523438C6.86574 0.526964 6.36863 0.982872 6.31351 1.60678C6.31251 1.61768 6.31152 1.62698 6.31019 1.63499C6.30355 1.63531 6.29624 1.63563 6.28827 1.63563C6.09002 1.63628 5.89178 1.6366 5.69353 1.6366L4.73218 1.63628C4.39247 1.63628 4.11719 1.90206 4.11719 2.23005V2.93667C4.11719 3.26465 4.39247 3.53044 4.73218 3.53044H10.2755C10.6152 3.53044 10.8904 3.26465 10.8904 2.93667V2.23005C10.8904 1.90238 10.6152 1.63628 10.2755 1.63628Z" fill="white"/>
<path fill-rule="evenodd" clip-rule="evenodd" d="M12.1367 11.2127C12.1367 13.6644 10.0696 15.6605 7.52788 15.6631C4.97524 15.6656 2.90777 13.6676 2.91408 11.2044C2.92039 8.74913 4.98919 6.75525 7.52688 6.75781C10.0629 6.7607 12.1367 8.76484 12.1367 11.2127Z" fill="#010101"/>
<path fill-rule="evenodd" clip-rule="evenodd" d="M10.404 8.43897C9.63198 7.69291 8.60986 7.28157 7.52399 7.28125C5.28151 7.28125 3.45545 9.04589 3.45313 11.2148C3.45213 12.2658 3.87453 13.2536 4.64261 13.9958C5.41069 14.738 6.43314 15.1471 7.522 15.1474C7.522 15.1474 7.52399 15.1474 7.52432 15.1474C9.76912 15.1474 11.5975 13.385 11.5995 11.219C11.6008 10.1725 11.1761 9.18535 10.404 8.43897Z" fill="white"/>
<path d="M6.49373 12.9009L5.11198 11.5668C4.95226 11.4126 4.95226 11.1625 5.11198 11.0083C5.27171 10.8541 5.53072 10.8541 5.69045 11.0083L6.54487 11.8332L9.31202 9.61463C9.48603 9.47516 9.74371 9.49824 9.88816 9.66624C10.0326 9.83424 10.0087 10.083 9.8347 10.2225L6.49373 12.9009Z" fill="#E7282C"/>
</svg>
