<svg width="21" height="17" viewBox="0 0 21 17" fill="none" xmlns="http://www.w3.org/2000/svg">
<path d="M0.101562 9.21674C0.219857 8.93579 0.441658 8.83228 0.737394 8.85446C0.900048 8.86186 1.0627 8.84707 1.22536 8.86925C1.47673 8.90622 1.65417 9.10584 1.64678 9.33503C1.63939 9.57162 1.46934 9.74906 1.21057 9.79342C1.16621 9.80082 1.12185 9.80821 1.0627 9.8156C1.0627 11.6566 1.0627 13.4975 1.0627 15.3459C5.16603 15.3459 9.26936 15.3459 13.3801 15.3459C13.3949 15.2867 13.4097 15.2276 13.4244 15.161C13.4762 14.9244 13.661 14.7766 13.8828 14.784C14.112 14.784 14.3116 14.9466 14.3338 15.198C14.356 15.4346 14.3486 15.6712 14.3338 15.9078C14.3116 16.1296 14.1712 16.2552 13.9568 16.2996C13.8902 16.3144 13.8237 16.3218 13.7571 16.3218C9.40983 16.3218 5.06252 16.3218 0.715213 16.3218C0.419478 16.3218 0.20507 16.2257 0.108956 15.9299C0.101562 13.6823 0.101562 11.4495 0.101562 9.21674Z" fill="#e8252a"/>
<path d="M9.65108 6.45312C11.8026 6.45312 13.954 6.45312 16.1129 6.45312C16.6156 6.45312 16.7709 6.60839 16.7709 7.10374C16.7709 9.1591 16.7709 11.2219 16.7709 13.2772C16.7709 13.7504 16.6083 13.9131 16.1351 13.9131C11.8173 13.9131 7.49221 13.9131 3.17447 13.9131C2.68651 13.9131 2.53125 13.7578 2.53125 13.2698C2.53125 11.2145 2.53125 9.15171 2.53125 7.09635C2.53125 6.61578 2.6939 6.45312 3.17447 6.45312C5.33334 6.45312 7.49221 6.45312 9.65108 6.45312ZM3.4776 12.9519C7.60311 12.9519 11.7064 12.9519 15.8098 12.9519C15.8098 11.0962 15.8098 9.26261 15.8098 7.42166C11.6917 7.42166 7.58832 7.42166 3.4776 7.42166C3.4776 9.27 3.4776 11.1036 3.4776 12.9519Z" fill="#e8252a"/>
<path d="M19.9524 14.5798C19.9524 10.0328 19.9524 5.51546 19.9524 0.975926C16.2262 0.975926 12.5073 0.975926 8.75885 0.975926C8.75885 1.05725 8.75885 1.13858 8.75885 1.21251C8.75885 2.42503 8.75885 3.63754 8.75885 4.85006C8.75885 4.93139 8.75885 5.01271 8.74407 5.09404C8.7071 5.31584 8.52966 5.4711 8.30786 5.4785C8.08606 5.48589 7.89383 5.3602 7.84207 5.1384C7.81989 5.06447 7.8125 4.97575 7.8125 4.89442C7.8125 3.4601 7.8125 2.02579 7.8125 0.584077C7.8125 0.184834 7.98994 0 8.39658 0C12.3742 0 16.3445 0 20.3221 0C20.7213 0 20.8988 0.184835 20.8988 0.591471C20.8988 5.37499 20.8988 10.1511 20.8988 14.9346C20.8988 15.3265 20.7213 15.5113 20.3295 15.5113C19.0135 15.5113 17.7048 15.5113 16.3888 15.5113C16.0339 15.5113 15.8195 15.3339 15.8195 15.0455C15.8195 14.7572 16.0339 14.5724 16.3888 14.5724C17.4978 14.5724 18.6068 14.5724 19.7232 14.5724C19.7972 14.5798 19.8711 14.5798 19.9524 14.5798Z" fill="#e8252a"/>
<path d="M14.352 4.96979C13.2874 4.96979 12.2301 4.96979 11.1655 4.96979C10.818 4.96979 10.6405 4.8441 10.5888 4.58533C10.537 4.33396 10.6775 4.11216 10.9289 4.05301C11.0102 4.03083 11.0915 4.02344 11.1655 4.02344C13.3022 4.02344 15.4388 4.02344 17.5755 4.02344C17.997 4.02344 18.2335 4.26003 18.1522 4.60751C18.1079 4.79974 17.9896 4.91804 17.7973 4.94761C17.7086 4.9624 17.6125 4.96979 17.5164 4.96979C16.4591 4.96979 15.4019 4.96979 14.352 4.96979Z" fill="#e8252a"/>
<path d="M14.3649 2.07997C15.0007 2.07997 15.6366 2.07258 16.2724 2.08737C16.4129 2.08737 16.5681 2.12433 16.6938 2.19827C16.8491 2.28699 16.9082 2.45704 16.8713 2.63448C16.8343 2.82671 16.7308 2.95239 16.5386 3.00415C16.4572 3.02633 16.3685 3.03372 16.2798 3.03372C14.9933 3.03372 13.7069 3.03372 12.4278 3.03372C12.073 3.03372 11.8881 2.90064 11.8438 2.63448C11.7994 2.3831 11.9473 2.15391 12.1986 2.11694C12.3909 2.08737 12.5905 2.09476 12.7827 2.08737C13.3076 2.07997 13.84 2.07997 14.3649 2.07997Z" fill="#e8252a"/>
<path d="M19.2822 12.1137C19.2527 12.6904 19.053 13.171 18.5355 13.4741C18.2841 13.622 18.018 13.5628 17.8775 13.3484C17.7296 13.1266 17.7888 12.8678 18.0254 12.6904C18.4542 12.3651 18.4542 11.855 18.0254 11.537C17.7962 11.367 17.737 11.1156 17.8775 10.9012C18.018 10.6794 18.2841 10.6129 18.5355 10.7533C19.053 11.0491 19.2527 11.537 19.2822 12.1137Z" fill="#e8252a"/>
<path d="M3.47656 12.9521C3.47656 11.1038 3.47656 9.27022 3.47656 7.42188C7.58728 7.42188 11.6906 7.42188 15.8087 7.42188C15.8087 9.26283 15.8087 11.0964 15.8087 12.9521C11.7054 12.9521 7.60207 12.9521 3.47656 12.9521ZM9.71658 11.9466C10.7221 11.8801 11.4614 11.0594 11.4097 10.1131C11.3579 9.12235 10.5372 8.38301 9.59089 8.41998C8.50406 8.46434 7.83866 9.34415 7.87563 10.2388C7.91999 11.333 8.84416 11.9984 9.71658 11.9466ZM13.6055 9.71382C13.4133 9.71382 13.2284 9.70643 13.0362 9.71382C12.7183 9.72861 12.5187 9.92084 12.5187 10.1944C12.5187 10.4606 12.7109 10.6528 13.0288 10.6602C13.4059 10.675 13.7829 10.675 14.1674 10.6602C14.4779 10.6528 14.6775 10.4606 14.6775 10.1944C14.6775 9.92823 14.4705 9.72861 14.16 9.71382C13.9678 9.70643 13.7903 9.71382 13.6055 9.71382ZM5.68718 10.6454C5.69458 10.6454 5.69458 10.6454 5.68718 10.6454C5.91638 10.6454 6.14557 10.6602 6.37477 10.638C6.61136 10.6158 6.75922 10.4236 6.76662 10.1944C6.77401 9.9652 6.63354 9.75079 6.39695 9.736C5.93117 9.71382 5.46538 9.71382 5.00699 9.736C4.7778 9.75079 4.62254 9.9652 4.62254 10.1796C4.62254 10.4088 4.79258 10.6084 5.02917 10.6306C5.24358 10.6602 5.46538 10.6454 5.68718 10.6454Z" fill="white"/>
<path d="M9.71733 11.9494C8.84491 11.9938 7.92074 11.3358 7.88377 10.2342C7.8542 9.34696 8.51221 8.45975 9.59903 8.41539C10.538 8.37842 11.3661 9.11776 11.4178 10.1085C11.4622 11.0696 10.7228 11.8829 9.71733 11.9494ZM9.64339 11.0105C10.1018 11.0105 10.4641 10.6482 10.4641 10.1824C10.4641 9.73141 10.1092 9.36914 9.65818 9.36914C9.1924 9.36174 8.83012 9.72402 8.82273 10.1824C8.82273 10.6482 9.185 11.0105 9.64339 11.0105Z" fill="#e8252a"/>
<path d="M13.6098 9.71422C13.7947 9.71422 13.9721 9.70683 14.157 9.71422C14.4675 9.72901 14.6819 9.92863 14.6745 10.1948C14.6745 10.461 14.4749 10.6532 14.1643 10.6606C13.7873 10.6754 13.4102 10.6754 13.0258 10.6606C12.7152 10.6532 12.523 10.461 12.5156 10.1948C12.5156 9.92124 12.7152 9.72901 13.0332 9.71422C13.2328 9.70683 13.4176 9.71422 13.6098 9.71422Z" fill="#e8252a"/>
<path d="M5.68923 10.6452C5.46743 10.6452 5.24563 10.66 5.02382 10.6378C4.78724 10.6156 4.61719 10.4086 4.61719 10.1868C4.61719 9.965 4.77245 9.75059 5.00164 9.7432C5.46743 9.72102 5.93321 9.72102 6.3916 9.7432C6.62819 9.75798 6.76866 9.965 6.76127 10.2016C6.75388 10.4308 6.60601 10.623 6.36942 10.6452C6.15501 10.66 5.92582 10.6452 5.68923 10.6452C5.69662 10.6452 5.69662 10.6452 5.68923 10.6452Z" fill="#e8252a"/>
<path d="M9.64879 11.0086C9.1904 11.0086 8.82812 10.6464 8.82812 10.1806C8.82812 9.72218 9.19779 9.35991 9.66358 9.3673C10.1146 9.37469 10.4695 9.72957 10.4695 10.1806C10.4768 10.6464 10.1146 11.0086 9.64879 11.0086Z" fill="white"/>
</svg>
