<svg width="18" height="29" viewBox="0 0 18 29" fill="none" xmlns="http://www.w3.org/2000/svg">
<path d="M6.75001 0L1.33514e-05 6.11726V18.3518C1.33514e-05 18.8926 0.237066 19.4112 0.659023 19.7936C1.08098 20.1761 1.65327 20.3909 2.25001 20.3909H15.75C16.3467 20.3909 16.919 20.1761 17.341 19.7936C17.7629 19.4112 18 18.8926 18 18.3518V2.03909C18 1.49829 17.7629 0.979638 17.341 0.597235C16.919 0.214832 16.3467 0 15.75 0H6.75001ZM2.25001 18.3518V7.13681H7.87501V2.03909H15.75V18.3518H2.25001ZM9.00001 17.3323L13.5 13.2541H10.6875V10.1954H7.31251V13.2541H4.50001L9.00001 17.3323Z" fill="#E8252A"/>
<path d="M5.23926 27.9062H4.29932L3.04834 25.8623L1.78711 27.9062H0.912109L2.56982 25.3154L1.01807 22.9092H1.92725L3.08252 24.7993L4.23779 22.9092H5.11963L3.55762 25.3291L5.23926 27.9062ZM5.9126 27.9062V22.9092H6.72949V27.2056H8.84521V27.9062H5.9126ZM12.5879 26.5493C12.5879 26.9937 12.4272 27.3423 12.106 27.5952C11.7847 27.8481 11.3415 27.9746 10.7764 27.9746C10.2113 27.9746 9.7487 27.8869 9.38867 27.7114V26.939C9.61654 27.0461 9.85807 27.1304 10.1133 27.1919C10.3708 27.2534 10.61 27.2842 10.8311 27.2842C11.1546 27.2842 11.3927 27.2227 11.5454 27.0996C11.7004 26.9766 11.7778 26.8114 11.7778 26.604C11.7778 26.4172 11.7072 26.2588 11.5659 26.1289C11.4246 25.999 11.133 25.8452 10.6909 25.6675C10.2352 25.4829 9.9139 25.2721 9.72705 25.0352C9.5402 24.7982 9.44678 24.5133 9.44678 24.1807C9.44678 23.7637 9.59489 23.4355 9.89111 23.1963C10.1873 22.957 10.585 22.8374 11.084 22.8374C11.5625 22.8374 12.0387 22.9422 12.5127 23.1519L12.2529 23.8184C11.8086 23.6315 11.4121 23.5381 11.0635 23.5381C10.7992 23.5381 10.5986 23.5962 10.4619 23.7124C10.3252 23.8263 10.2568 23.9779 10.2568 24.167C10.2568 24.2969 10.2842 24.4085 10.3389 24.502C10.3936 24.5931 10.4836 24.6797 10.6089 24.7617C10.7342 24.8438 10.9598 24.952 11.2856 25.0864C11.6525 25.2391 11.9214 25.3815 12.0923 25.5137C12.2632 25.6458 12.3885 25.7951 12.4683 25.9614C12.548 26.1278 12.5879 26.3237 12.5879 26.5493ZM17.2363 27.9062H16.2964L15.0454 25.8623L13.7842 27.9062H12.9092L14.5669 25.3154L13.0151 22.9092H13.9243L15.0796 24.7993L16.2349 22.9092H17.1167L15.5547 25.3291L17.2363 27.9062Z" fill="#E8252A"/>
</svg>
